<svg xmlns="http://www.w3.org/2000/svg" width="30" height="30"><path d="M0 0h30v30H0zm0 0" style="stroke:none;fill-rule:nonzero;fill:#fcfdfd;fill-opacity:1"/><path d="M.879 1.332H29.28v12.992H.88zm0 0" style="stroke:none;fill-rule:nonzero;fill:#357db4;fill-opacity:1"/><path d="M.879 15.582H14.48v12.992H.88zM15.684 15.582H29.28v12.992H15.684zm0 0" style="stroke:none;fill-rule:nonzero;fill:#367db4;fill-opacity:1"/><path d="M23.363 18.652h1.18c.02.024.02.024.023.067v3.84q0 1.159-.003 2.312a21 21 0 0 1-.5.02c-.06.004-.114.004-.172.007-.461.024-.461.024-.575-.062a1 1 0 0 1-.164-.328c-.03-.063-.03-.063-.066-.113q-.016-.02-.031-.043-.011-.024-.028-.047a21 21 0 0 1-.238-.395c-.133-.223-.27-.441-.402-.664q-.34-.555-.68-1.117-.223-.374-.453-.754l-.04-.062q-.016-.028-.034-.055L21.027 21l-.023 3.848h-1.18v-6.172h1.18c.254.281.254.281.32.488.035.098.082.176.137.262q.023.04.047.086.082.138.168.277c.105.164.203.332.304.5l.344.574q.022.03.043.067.037.064.078.129c.176.293.352.582.524.878q.177.311.37.61c.009-1.285.016-2.57.024-3.895m0 0" style="stroke:none;fill-rule:nonzero;fill:#fcfdfc;fill-opacity:1"/><path d="M11.52 3.797h4.742V5.03h-3.54v1.864h2.36v1.234h-2.36v3.121h-1.179c-.023-.023-.023-.023-.027-.074V8.05q-.001-.539.004-1.082V3.797m0 0" style="stroke:none;fill-rule:nonzero;fill:#fafcfc;fill-opacity:1"/><path d="M6.8 3.797h3.54V5.03H9.16v4.961h1.18v1.235H6.8V9.992h1.18v-4.96H6.8zM20.645 3.793h.265q.135.001.27-.004c.652 0 1.156.106 1.64.59.461.484.575 1.082.575 1.742v.356c.003.406-.02.796-.196 1.168-.008.023-.02.043-.027.066-.227.457-.602.789-1.063.96-.261.079-.52.095-.789.09h-.093q-.112-.002-.223-.003v.605h-1.18c-.004-.183-.004-.363-.008-.55 0-.086 0-.086-.003-.176V8.43c0-.282.097-.5.277-.703.265-.27.64-.215.98-.215.457.011.457.011.867-.18.235-.254.239-.516.239-.848v-.086q-.005-.128-.004-.257v-.243a.93.93 0 0 0-.246-.648c-.176-.168-.367-.176-.598-.18h-.246q-.124-.002-.254-.004c-.422-.007-.422-.007-.777.207-.196.204-.219.43-.223.704q-.002.156-.004.312h-1.203q-.005-.15-.004-.309v-.093c-.004-.586.2-1.102.59-1.528.398-.398.895-.562 1.438-.566m0 0" style="stroke:none;fill-rule:nonzero;fill:#fcfdfc;fill-opacity:1"/><path d="M5.598 18.652H6.8v1.258h.578v1.235h1.18V19.91h.601v-1.234h1.18v1.234h-.578v1.235H9.16v1.234h-.578v2.492H7.379V22.38H6.8v-1.234h-.602V19.91h-.601zm0 0" style="stroke:none;fill-rule:nonzero;fill:#fafcfc;fill-opacity:1"/><path d="M0 29.805h30V30H0zm0 0" style="stroke:none;fill-rule:nonzero;fill:#4480ac;fill-opacity:1"/><path d="M.879 1.332H29.28v8.828h-.043c-.031-.246-.015-.469 0-.726V1.379H.902l.024 1.066c.004.262.004.524.008.785v.31q.002.408.003.82v.288Q.95 6.998.95 9.34q.005.24.004.48v1.114c0 1.113-.015 2.226-.027 3.34h28.312v-4.09h.043v4.14H.88zm0 0" style="stroke:none;fill-rule:nonzero;fill:#376c92;fill-opacity:1"/><path d="M0 0h30v.098H0zm0 0" style="stroke:none;fill-rule:nonzero;fill:#4c82a9;fill-opacity:1"/><path d="M.875 15.523h.652q.188-.001.371.004H3.38q.457.005.918.004h.348q1.025.004 2.05.008 1.001-.001 1.996.004h.68c.418 0 .836.004 1.258.004h.059q1.929.007 3.863.008v.078q-.005 1.646-.004 3.293v7.516c0 .613.004 1.226.023 1.84h.024q.005.052.004.105v.054c-.004.102-.016.145-.082.223-.059.055-.059.055-.106.055l-.023-.051h-.051q-.236.005-.465.004h-.757c-.067-.004-.067-.004-.137-.016-.07-.011-.133-.011-.2-.011H12.7q-.04.004-.082.003h-.09c-.062.004-.12.004-.183.004l-.489.012h-.05q-.464.007-.934.008h-.301q-.104.001-.215-.016c-.12-.015-.242-.015-.367-.015h-.484q-.77 0-1.54.011H7.88q-.175.002-.352.004-.135-.001-.27.004h-.089a71 71 0 0 1-2.41-.012 73 73 0 0 0-.926-.007h-.078c-.266 0-.531.004-.797.027-.066 0-.066 0-.113-.023-.055 0-.11-.004-.168 0h-.789q-.186 0-.38.003h-.331c-.102 0-.196-.011-.297-.027a2.3 2.3 0 0 1-.082-.59v-.086c0-.093-.004-.187-.004-.28v-.15c-.004-.226-.004-.456-.008-.683V25.82c-.004-.101 0-.203 0-.304v-.25c0-.055 0-.055.024-.082a3 3 0 0 0-.02-.465c-.004-.067-.004-.067.02-.114q.004-.053.003-.105v-1.582q-.004-.463-.003-.926H.785v-2.781q.001-.468-.004-.93v-2.625c.008-.07.024-.117.094-.133m.004.059v12.992H14.48V15.582zm0 0" style="stroke:none;fill-rule:nonzero;fill:#cbe5f0;fill-opacity:1"/><path d="m24.563 15.484.023.047.078-.011c.121-.016.242-.012.367-.012h.133q.03.005.059.004c.058 0 .058 0 .117-.016a.4.4 0 0 1 .172.012q.082.001.164-.004h.043q.074-.004.144-.008c.063-.004.13-.004.192-.008.043-.004.043-.004.086-.004.066 0 .066 0 .113.024q.1.005.207.004h1.613c.235 0 .473 0 .711-.012.024-.004.024-.004.05-.004q.106-.005.216-.016c.035 0 .035 0 .07-.003q.03-.002.059-.004c.086.015.117.062.172.132.015.075.015.075.015.165v.332q.001.163-.004.328v1q-.005.468-.004.941-.002.814-.004 1.629-.003.942-.007 1.883v.66c0 .484-.004.973-.004 1.457v.066q-.005 2.254-.016 4.508c-.05.028-.078.028-.137.028h-.968q-.276-.005-.551-.004H15.637c-.032-.067-.028-.121-.028-.196v-.207c0-.035-.004-.074-.004-.113v-.512q-.003-.48-.007-.96v-.235c-.012-2-.004-4 .004-6q.004-.246.003-.492-.001-.198.004-.403.005-.93.004-1.863V16.54q.001-.17-.004-.34v-.441c0-.082 0-.149.028-.227q.744-.028 1.488-.027h.3q.26.005.516.004h4.407q.371-.001.742.004h1.371c.059 0 .059 0 .102-.028m-8.88.098v12.992h13.598V15.582zm0 0" style="stroke:none;fill-rule:nonzero;fill:#c2dfeb;fill-opacity:1"/><path d="M11.012 29.855H30V30H17.117v-.047a12 12 0 0 0-.926-.027v-.024h-.476c-.055-.004-.055-.004-.102.024v-.047l-.047.023c-.093.035-.175.032-.277.032h-.059q-.094-.002-.187-.004h-.129q-.156.001-.32-.004h-.625v-.024h-.582c-.063-.007-.063-.007-.086.024q-.106.005-.207.004-.037-.001-.067.004h-1.402q-.074 0-.148.003h-.274c-.055 0-.055 0-.148-.011a1 1 0 0 0-.043-.07m0 0" style="stroke:none;fill-rule:nonzero;fill:#3579ae;fill-opacity:1"/><path d="M.879 14.324H29.28v.024h-.062c-1.29 0-2.574.004-3.864.007h-.507c-.5 0-.996.004-1.496.004-.528 0-1.051 0-1.579.004h-.945q-.327-.001-.648.004h-.844c-.383-.031-.383-.031-.715.051q-.092.005-.183.004h-1.641c-.098 0-.188-.008-.281-.027l-.164.023h-.043c-.028 0-.051 0-.079.004h-.183a1 1 0 0 1-.203-.027l-.024.023q-.066.005-.133.004h-1.242c-.058-.004-.058-.004-.105-.027l-.047.023q-.076.005-.152.004h-.899q-.258.001-.515-.004h-1.094c-.028 0-.055.004-.086.004h-.156a.6.6 0 0 1-.29-.05v.046c-.183 0-.37.004-.558.004h-.816c-.059-.004-.059-.004-.106-.027-.035 0-.07-.004-.105-.004h-.059c-.07.004-.07.004-.148.015-.11.016-.215.016-.32.016H7.194c-.136 0-.136 0-.187-.027-.031 0-.067-.004-.098-.004h-.055c-.054.004-.054.004-.101.015-.102.02-.203.016-.305.016h-.753c-.051-.004-.051-.004-.102-.016l-.043-.011-.024.023q-.071.005-.148.004h-.082c-.07-.004-.07-.004-.117-.027-.063 0-.125-.004-.192-.004h-.633c-.058.004-.058.004-.128.015-.098.016-.196.016-.297.016H2.789c-.242 0-.488-.004-.73-.004v-.047h-.141q-.007.024-.02.047h-.046v-.047l-.254.047v-.047l-.059.024c-.156.046-.312.023-.476 0l-.09-.012-.07-.012zm0 0" style="stroke:none;fill-rule:nonzero;fill:#d2ebf2;fill-opacity:1"/><path d="M19.824 9.992h1.18v1.235h-1.18zm0 0" style="stroke:none;fill-rule:nonzero;fill:#fcfefc;fill-opacity:1"/><path d="M.875 15.523h.648q.186-.001.372.004h1.468q.458.005.914.004h.348q1.02.004 2.043.008.989-.001 1.984.004h.676c.418 0 .832.004 1.25.004h.059q1.922.007 3.843.008v.027H.88v12.992c-.082-.172-.074-.344-.078-.527v-.09c0-.078-.004-.156-.004-.234v-.149q-.012-.796-.012-1.594v-.16c-.004-.101 0-.203 0-.304v-.25c0-.055 0-.055.024-.082a3 3 0 0 0-.02-.465c-.004-.067-.004-.067.02-.114q.004-.053.003-.105v-1.582q-.004-.463-.003-.926H.785v-2.781q.001-.468-.004-.93v-2.625c.008-.07.024-.117.094-.133m0 0" style="stroke:none;fill-rule:nonzero;fill:#bedbe6;fill-opacity:1"/><path d="M6.938 3.723h.75q.907 0 1.808.011.093.005.18.004.14-.001.281.004h.102c.046 0 .093.004.14.004h.082c.059.004.059.004.082.027 0 .04.004.082.004.122v.426q-.001.138.004.277v.406q-.004.026-.008.05c-.09.063-.164.063-.27.067q-.023.002-.054.004c-.133.008-.133.008-.187-.02a.2.2 0 0 1-.02.047c-.016 0-.035-.004-.05-.004l-.063-.007q-.03-.001-.063-.008c-.058-.004-.058-.004-.125-.004l-.324-.024v4.84h1.133v.047H9.16v-4.96h1.18V3.796H6.8V5.03h1.18v4.961H6.777v1.258h-.023v-.734q-.002-.13-.004-.266v-.23c.004-.051.004-.051.027-.075q.052-.005.106-.004h.609q.2-.001.395.004c.027-.09.027-.172.027-.265v-.394q.005-.196.004-.384V8.5q.005-.376.004-.758c0-.285.004-.574.004-.863q.004-.887.008-1.774l-.043.012q-.105.023-.215.028c-.043.003-.043.003-.067.03q-.075.006-.152.005h-.082c-.023 0-.043-.004-.066-.004l.023-.07h-.43c-.035 0-.035 0-.07.003-.055-.004-.055-.004-.078-.027-.004-.059-.012-.117-.012-.18q-.005-.024-.004-.054c-.02-.368-.008-.73.016-1.098.062-.031.113-.027.184-.027m0 0" style="stroke:none;fill-rule:nonzero;fill:#53809e;fill-opacity:1"/><path d="M.879 15.582H14.48v1.668h-.046v-1.402h-.047c.011-.078.023-.145.047-.22H6.879l-1.957-.003H1.484c-.187 0-.37.016-.558.027L.902 28.547h.715v.027H.88zm0 0" style="stroke:none;fill-rule:nonzero;fill:#396e95;fill-opacity:1"/><path d="M15.684 15.582H29.28v.387h-.043l-.011-.063-.012-.082-.012-.078c-.008-.066-.008-.066-.035-.117q-.02.005-.04.004c-.171.023-.339.02-.51.012q-.404-.019-.802-.02H19.93c-.063 0-.063 0-.13.027q-.057.005-.116.004h-.075c-.023 0-.05-.004-.078-.004h-.265q-.148-.005-.29-.004-.232-.001-.464-.003a72 72 0 0 0-.918-.008c-.047 0-.098-.004-.149-.004q-.821-.005-1.648-.004a.6.6 0 0 0-.07.3v.133c0 .04 0 .04-.004.075v.812c0 .184-.004.371-.004.555v.898q-.005.44-.004.875v.325q-.007 1.123-.008 2.246h-.023zm0 0" style="stroke:none;fill-rule:nonzero;fill:#376c92;fill-opacity:1"/><path d="M.855 1.332H.88v12.992c-.066-.07-.055-.14-.055-.234v-.258q-.002-.073-.004-.145v-.406q-.005-.133-.004-.265C.801 11.078.81 9.136.81 7.199v-.75q.002-.616.003-1.238V3.278q0-.435-.019-.868c0-.031-.004-.058-.004-.09 0-.023-.004-.05-.004-.078 0-.058.008-.105.024-.16a1 1 0 0 0 0-.144v-.083Q.81 1.767.805 1.68v-.157a.5.5 0 0 1 .05-.191m0 0" style="stroke:none;fill-rule:nonzero;fill:#cde7f0;fill-opacity:1"/><path d="M0 .098h30V.12q-.514.03-1.027.024h-.336c-.086 0-.172 0-.258.015-.024.004-.043.004-.067.008L28.29.145c-.059 0-.117-.004-.176-.004H17.446q-.124 0-.247.02c-.082.007-.082.007-.152-.016-.04 0-.078-.004-.117-.004h-.735q-.229-.001-.453.004H4.844Q4.07.149 3.297.148H.44Q.221.15 0 .121zm0 0" style="stroke:none;fill-rule:nonzero;fill:#e3f7fe;fill-opacity:1"/><path d="M29.352 28.21c.027.083.023.153.02.243 0 .035 0 .035-.005.074-.02.086-.035.118-.105.168-.04-.008-.078-.011-.117-.02-.09-.01-.18-.007-.274-.007h-.699c-.074 0-.149 0-.223-.012a3 3 0 0 0-.3-.015h-1.625c-.098 0-.188.011-.282.027-.164.008-.332 0-.5-.012a2 2 0 0 0-.387.008 1 1 0 0 1-.195-.008 2 2 0 0 0-.293 0c-.254.024-.508.02-.762.008-.718-.027-1.44-.02-2.16-.02h-1.718q-.357.002-.707.004h-2.485q-.13-.001-.254.004h-.5c-.05-.007-.05-.007-.097-.054l13.644-.024v-.34zm0 0" style="stroke:none;fill-rule:nonzero;fill:#ecfcfc;fill-opacity:1"/><path d="M29.305 7.695h.023l.012 1.973q-.001.457.004.918-.001.398.004.797v.426q-.001.198.004.398v1.343c0 .188 0 .372.023.555a.8.8 0 0 1 0 .192c-.059.07-.098.113-.187.133q-.088.001-.168-.004h-.06q-.07-.001-.14-.008v-.047l-.05.027c-.067.02-.067.02-.118 0-.015-.007-.027-.02-.039-.027v.047h-1.066v-.023l-.078.011a.2.2 0 0 0-.051.008l-.102.012c-.168.027-.34.008-.507-.008v-.023c-.059 0-.106-.004-.16.015-.067.012-.122-.004-.188-.015l-.07.023-.055-.012c-.059-.015-.059-.015-.102 0-.07.02-.14.016-.214.016h-.297c-.086 0-.172-.004-.258-.004h-.172c-.129.004-.262.004-.39.004h-.751c-.05-.004-.05-.004-.074-.027-.062 0-.121-.004-.183-.004h-.06c-.065 0-.132.004-.198.004h-3.071q-.24.004-.48.003h-.437c-.45 0-.45 0-.66-.027v-.023l10.292-.024zm0 0" style="stroke:none;fill-rule:nonzero;fill:#e7fcfe;fill-opacity:1"/><path d="M1.363 15.508q.07.005.14.004h3.091q.281 0 .562-.024a.8.8 0 0 1 .211.02q.064.005.13.004h.077c.043 0 .043 0 .082-.004h.789c.137-.004.266.004.403.023v-.047l.066.012q.141.017.281.016h3.899c.207 0 .414-.004.62-.024.06-.004.06-.004.13.02q.07.005.14.004h1.27c.07 0 .07 0 .133-.016.05-.012.05-.012.097.012q.081.006.157 0h.25c.199-.004.394 0 .59.023v.024q-1.881.005-3.762.004H1.738c-.273 0-.543 0-.812-.028v-.023c.129-.028.316-.063.437 0m0 0" style="stroke:none;fill-rule:nonzero;fill:#e7fdfe;fill-opacity:1"/><path d="m19.824 18.676.043.027v5.726c0 .118.004.227.024.344.203.004.398-.003.597-.015.121-.008.23-.004.352.015h.07l.012-.199q-.001-.03.004-.058-.001-.028.004-.055v-.05q.005-.062.004-.122v-1.257c.015-.298.015-.298-.047-.579l.023-.172c.008-.047.008-.047.012-.093l.012-.075h-.024q.002-.023.004-.047c.02-.214.027-.433.031-.652q.002-.074.004-.148-.001-.044.004-.086.005-.116.027-.227h.024v3.895h-1.18zm0 0" style="stroke:none;fill-rule:nonzero;fill:#e0f9fe;fill-opacity:1"/><path d="M23.363 18.652h1.18c.02.024.02.024.023.067v3.84q0 1.159-.003 2.312h-1.2l-.023-.074h1.156l.024-6.121h-1.137v3.922h-.02zm0 0" style="stroke:none;fill-rule:nonzero;fill:#b2d5e5;fill-opacity:1"/><path d="m29.238 1.379.043.023v8.758h-.043a2.7 2.7 0 0 1-.015-.469c.023-.328.015-.66.015-.988V1.38m0 0" style="stroke:none;fill-rule:nonzero;fill:#366f9c;fill-opacity:1"/><path d="M12.7 5.055h.023v1.84h2.359v1.234h-2.336v-.024q.02-.004.04-.003c.097-.012.187-.028.284-.047h.09v.05l.215-.011q.034.001.063-.004h.058q.031-.005.055-.004c.054-.004.054-.004.12-.031v.05h.208l.023-.05a.1.1 0 0 0 .036.015c.07.012.128.008.195 0 .133-.015.133-.015.207.012a1 1 0 0 0 .07-.027v.05a5 5 0 0 1 .25-.007q.036-.005.07-.004c.024 0 .047-.004.07-.004h.063c.063-.004.063-.004.125-.059.028-.125.028-.25.028-.379V7.59c-.004-.063-.004-.121-.004-.184V6.97h-.07q-.772.002-1.544-.008h-.175q-.123-.005-.246-.004h-.075q-.035-.005-.07-.004h-.059c-.062-.012-.082-.031-.12-.082-.008-.066-.008-.066-.005-.14.004-.106.004-.106-.007-.208-.012-.066-.016-.125-.012-.191V6.18c0-.032.004-.059.004-.086v-.172q.004-.136.008-.266v-.168q-.001-.04.004-.082a.8.8 0 0 1 .054-.351m0 0" style="stroke:none;fill-rule:nonzero;fill:#e8fcfe;fill-opacity:1"/><path d="M1 15.625c.043.004.043.004.09.004h.16c-.047.047-.047.047-.324.074v1.5l.047.024H.926v.085q.007.395.008.79.003.205.007.406-.001.198.004.394v.149q.005.105.004.21v.063c0 .082 0 .149-.023.223q.023.01.047.027H.926q.006.023.011.051c.012.066.016.125.016.195v2.766c-.004.062-.015.117-.027.18l.047.023H.926q.002.03.004.059c.02.21.023.422.023.636 0 .016 0 .036-.004.051 0 .262-.004.52-.023.781l.047.024H.926q.002.041.004.082c.015.281.023.555.023.836v1.101c0 .223-.004.442-.027.664l.047.024H.926v.148l.047.024H.926v.047l.047.023H.926v.05q.023.013.047.024H.926q.006.035.011.075.017.141.016.285c-.004.027-.004.027-.004.054 0 .114-.008.223-.023.336l.047.024H.926l.011.074a.7.7 0 0 1-.011.242H.902v-5.527c0-.621 0-1.238-.004-1.86v-5.273c0-.164 0-.164.102-.168m0 0" style="stroke:none;fill-rule:nonzero;fill:#3776a7;fill-opacity:1"/><path d="m23.063 7.887.042.023a1 1 0 0 1-.043.098h-.046a.3.3 0 0 0 .015.066c.008.078.008.078-.023.121-.04.032-.04.032-.11.055l-.035.055c-.082.097-.183.148-.289.21l-.07.051c-.016 0-.035.004-.055.004-.066.016-.066.016-.113.078-.074.075-.106.075-.203.079-.047.003-.047.003-.102.046-.078.047-.133.028-.218.008v.051q-.024.001-.047-.004h-.125c-.059 0-.059 0-.118.016-.09.015-.18.008-.27.004-.066.004-.066.004-.12.03-.063.079-.059.165-.063.267l-.011.117c0 .02 0 .035-.004.054-.008.047-.008.047-.051.118a1 1 0 0 1-.184.007h-.22599999999999998c-.04 0-.078-.004-.117-.004q-.14 0-.286-.003-.01.029-.023.05v-.05h-.367V8.37h.023v.992h1.18v-.605q.063.001.133-.004c.68-.016 1.265-.11 1.761-.649q.089-.106.165-.218M19.707 9.945q.258-.005.516-.004h.7489999999999999c.055.004.055.004.075.028q.005.058.004.117v.6950000000000001q.001.223-.004.446h-.043V9.992h-1.18v1.258h1.18v.047a4 4 0 0 1-.633.027h-.33499999999999996c-.106 0-.204-.008-.306-.027-.027-.149-.027-.293-.027-.445v-.079q.002-.123.004-.246v-.582m0 0" style="stroke:none;fill-rule:nonzero;fill:#3e759e;fill-opacity:1"/><path d="M6.176 21.168h.601v1.21h.602v2.493h1.203v-2.469h.578v.024c-.265.012-.265.012-.531.027-.004.11-.004.11-.004.223 0 .242-.004.488-.004.73q-.005.224-.004.442-.005.214-.004.43.001.081-.004.163v.297c-.004.153-.004.153-.027.18q-.076.011-.152.016-.04.002-.086.003-.03.004-.063.008l-.023.07H8.21v-.097h-.879v-2.492h-.555c-.023-.024-.023-.024-.027-.07v-.301q.005-.129.004-.258v-.602h-.578zm0 0" style="stroke:none;fill-rule:nonzero;fill:#3f7296;fill-opacity:1"/><path d="M21.86 3.727v.046h.09v.051q.024.001.05.008c.074.016.148.04.223.063.039.011.039.011.078.027.066.023.066.023.113.047v.047l.063.007c.078.016.097.028.144.09l.047.024v.047h.047l.023-.047v.097h.047v.07a.3.3 0 0 1-.183-.097c-.442-.371-.957-.398-1.5-.394h-.266c-.66 0-1.184.136-1.676.624-.39.426-.515.973-.531 1.543q-.002.048-.004.094c0 .07-.004.145-.004.215h-.023c-.035-.305-.047-.617.023-.918.004-.027.012-.055.016-.082q.029-.106.05-.207h.047c.004-.016.012-.031.016-.043.09-.285.09-.285.137-.332.05-.059.05-.129.058-.207h.067q.023-.045.047-.098h.07q.012-.045.023-.097l.114-.024v-.047q.25-.206.543-.336l.043-.023c.332-.137.68-.137 1.03-.14.044 0 .087-.005.13-.005q.42-.004.847-.003m0 0" style="stroke:none;fill-rule:nonzero;fill:#39688e;fill-opacity:1"/><path d="m10.363 10.016.09.12c-.004.055-.004.055-.02.098a.2.2 0 0 0 .02.047q-.001.087-.008.172a6 6 0 0 0-.015.45v.054c0 .102.008.195.023.293a.7.7 0 0 1-.21.078l-.06.012c-.05.008-.05.008-.097-.016-.05.008-.05.008-.11.02l-.054.015-.047.012c-.008-.016-.012-.031-.023-.047l-.059.012a.5.5 0 0 1-.195-.012.6.6 0 0 0-.114 0h-.07c-.055.004-.105.012-.16.02-.047.004-.047.004-.117-.02q-.064-.005-.13-.004h-.066c-.058 0-.058 0-.105.028l-.047-.012c-.101-.02-.2-.016-.3-.012-.247.004-.247.004-.348-.027l-.024.05-.043-.015c-.05-.016-.05-.016-.094.016v-.051l-1.18-.024v-.023l3.54-.023zm0 0" style="stroke:none;fill-rule:nonzero;fill:#377099;fill-opacity:1"/><path d="M20.664 5.043h.5q.083-.001.164.004h.074c.227 0 .403.062.57.226a.62.62 0 0 1 .165.387c-.051-.05-.059-.078-.078-.144-.028-.079-.028-.079-.09-.133l-.043-.012.023-.074c-.027-.008-.027-.008-.054-.02-.06-.027-.06-.027-.082-.074a.86.86 0 0 0-.442-.082h-.68a2.5 2.5 0 0 0-.453.055v.074a.4.4 0 0 1-.183.047v.05h-.047q-.01.03-.02.06c-.027.085-.027.085-.062.167-.051.14-.047.29-.051.438v.09q-.004.104-.008.214c-.066.032-.125.024-.199.024h-.145l-.023.07-.059-.012c-.05-.011-.05-.011-.082-.011l-.047.047-.023-.07-.113.046v-.047a.4.4 0 0 0-.035.04c-.082.046-.133.027-.22.007l.048-.023V6.34h-.043c-.106 0-.203-.004-.305-.024V6.29h1.203l-.015-.402c0-.25.066-.45.226-.637.188-.168.387-.21.63-.207m0 0" style="stroke:none;fill-rule:nonzero;fill:#3f729c;fill-opacity:1"/><path d="M9.184 5.055h1.156c-.07.074-.149.062-.242.066-.028.004-.028.004-.055.004-.137.008-.137.008-.191-.02a.2.2 0 0 1-.02.047c-.016 0-.035-.004-.05-.004q-.03-.003-.063-.007-.03-.001-.063-.008c-.058-.004-.058-.004-.125-.004l-.324-.024v4.84h1.133v.047H9.184zm0 0" style="stroke:none;fill-rule:nonzero;fill:#3f7599;fill-opacity:1"/><path d="M9.16 21.145h.602v.023h-.578c0 .09.004.18.004.27q.003.126.007.253c0 .059.004.122.004.18.004.086.004.168.008.254v.082c0 .035 0 .035.004.074v.067c-.004.054-.004.054-.05.129-.044.007-.044.007-.095.003h-.113q-.056-.004-.113-.003c-.027 0-.027 0-.05-.004-.052 0-.052 0-.114.027q.006.034.02.074c-.008.059-.008.059-.02.125q-.005.03-.016.067l-.008.05q.02.012.043.024-.002.02-.004.039a1 1 0 0 0-.004.281.33.33 0 0 1-.035.211q.02.012.043.024l-.011.082c-.016.082-.016.082.011.136l-.011.082c-.016.086-.016.086.011.16a2 2 0 0 1-.043.145c-.004.066-.004.066 0 .121q.02.012.043.024c-.011.156-.011.156-.02.316H8.63c.016.016.027.031.047.047h.02q-.01.084-.02.168h-.047v.195h-.024q0-.472-.003-.945v-1.317c0-.156 0-.156.027-.183l-.047-.047h.578zm0 0" style="stroke:none;fill-rule:nonzero;fill:#3b78a8;fill-opacity:1"/><path d="M6.8 3.797h3.54v.027h-.063c-.254.004-.507.004-.765.008h-.063q-.76.01-1.527.031c-.367.008-.73.012-1.098.008l.012.176v.047c.008.086.012.168.023.25.024.21.02.43-.011.64h.347v-.023h.075c.085.004.085.004.156-.027v.074h.554v.023H6.8zm0 0" style="stroke:none;fill-rule:nonzero;fill:#d2e8f4;fill-opacity:1"/><path d="M22.785 4.332h.067v.047h.046l.024.098h.047c.07.082.07.082.07.144l.066.024-.02.05q.066.024.138.047l.007.094c.012.133.06.242.11.367q.036.096.066.192h.024c.023.285.023.562.015.847-.004.07-.008.145-.008.215q0 .031-.003.055-.005.228-.004.457c.004.203-.004.37-.09.554h-.07q-.004.035-.008.063a.8.8 0 0 1-.086.23c-.016.051-.016.051-.024.094v-.047h-.047a.7.7 0 0 1 .079-.226c.082-.164.117-.344.156-.524l.012-.058c.015-.13.015-.254.015-.38v-.538c.004-.375 0-.742-.144-1.094l-.024-.05a1.8 1.8 0 0 0-.363-.56c-.05-.054-.05-.054-.05-.101m0 0" style="stroke:none;fill-rule:nonzero;fill:#43759b;fill-opacity:1"/><path d="M9.16 18.676h1.18v1.234h-.578v1.235h-.024v-.82h-.047v-.055a1.6 1.6 0 0 0-.023-.36c.086-.058.14-.082.242-.078h.074c.036 0 .036 0 .075.004h.074c.062 0 .12 0 .183.004q.001-.036-.004-.07 0-.124-.007-.254v-.11a21 21 0 0 1-.012-.703q-.21.001-.422.008h-.144q-.104.005-.207.004h-.063c-.031.004-.031.004-.062.004H9.34c-.047.004-.047.004-.086.054-.012.051-.012.051-.012.106v.066c0 .02-.004.043-.004.067a3 3 0 0 1-.031.39c-.008.09-.012.176-.016.266v.07q-.007.087-.007.172H9.16zm0 0" style="stroke:none;fill-rule:nonzero;fill:#e9fdff;fill-opacity:1"/><path d="M23.684 18.676h.836v6.082c0 .039 0 .039-.024.066h-.813c.231-.125.551-.074.79-.074l.023-6.047h-.812zm0 0" style="stroke:none;fill-rule:nonzero;fill:#ecfcfe;fill-opacity:1"/><path d="M7.98 7.137h.024v2.879c-.16.015-.316.027-.477.03-.02 0-.039.005-.058.005q-.094-.001-.188.004-.066-.001-.125.004-.157.001-.308.007a9 9 0 0 0 .02.704c.007.14-.005.25-.044.382h.391c.047 0 .047 0 .117.024a1 1 0 0 0 .094.008c.015.004.035.004.05.004l.06.003c.027 0 .027 0 .054.004q.066.001.137.008v.024H6.8V9.992h1.18zm0 0" style="stroke:none;fill-rule:nonzero;fill:#def5fa;fill-opacity:1"/><path d="M11.543 3.824h4.719v1.207h-.625v-.023l.578-.024V3.848l-.184.023q-.087.002-.176.004h-3.539c-.25 0-.5-.012-.75-.027 0 .027 0 .05.004.078q.001.123.008.246c0 .039.004.074.004.113q.005.08.004.16c.004.024.004.024.004.051.004.09 0 .121-.047.2zm0 0" style="stroke:none;fill-rule:nonzero;fill:#e9fcfe;fill-opacity:1"/><path d="M23.316 19.379h.047v3.219a3 3 0 0 1-.191-.285c-.008-.012-.02-.028-.027-.043-.06-.102-.06-.102-.06-.157l.09-.047.048.118h.07v-.059q.001-.135-.004-.27v-.265c.004-.086.016-.168.027-.25.004-.07.004-.145 0-.215q.002-.026.004-.05-.005-.17-.015-.34a10 10 0 0 1-.004-.852q.005-.072.004-.149zm0 0" style="stroke:none;fill-rule:nonzero;fill:#326b99;fill-opacity:1"/><path d="M19.848 8.129h.02c-.009.383-.013.766-.02 1.16h.413q.013.023.024.05c.11-.01.11-.01.207-.05v.05q.13-.015.254-.05h.047l.117-.023c.004-.032.004-.059.008-.09l.012-.121q.004-.03.008-.059c.011-.125.027-.242.066-.36q.034.008.074.012c.086.016.086.016.18.012v.05c.027-.007.058-.019.086-.026a.7.7 0 0 1 .316 0c.067.004.094-.016.152-.047l.094.023c.055 0 .055 0 .11-.008l.054-.007q.022-.004.043-.008c-.297.207-.773.129-1.11.12v.606h-1.179c-.004-.187-.004-.37-.004-.562v-.52a.7.7 0 0 1 .028-.152m0 0" style="stroke:none;fill-rule:nonzero;fill:#ecfcfe;fill-opacity:1"/><path d="M23.383 18.676c.023.012.023.012.047.027v.094c0 .234 0 .469.011.703.016.27.016.535.016.805v.297a.6.6 0 0 1-.027.203v.394q-.002.32.02.64.009.202.007.403.002.035.004.074v.129a.4.4 0 0 1-.055.153h-.023zm0 0" style="stroke:none;fill-rule:nonzero;fill:#e4f9fe;fill-opacity:1"/><path d="m12.676 8.129.047.023-.024 3.075h-.808v-.024c.066-.012.066-.012.136-.027v-.024c.164 0 .164 0 .207.016q.024.004.047.008l.024-.024q.066-.001.133.004.098-.008.19-.027c.024-.695.044-1.395.009-2.09q-.005-.035-.004-.07-.005-.03-.004-.059c0-.062.012-.117.023-.176v-.433c0-.024-.004-.047-.004-.07.004-.055.004-.055.028-.102m0 0" style="stroke:none;fill-rule:nonzero;fill:#eafbfe;fill-opacity:1"/><path d="M12.7 5.055h.023v1.84h2.359v.023h-2.406a2.4 2.4 0 0 1-.024-.336c-.004-.031-.004-.031-.011-.059-.012-.066-.016-.125-.012-.191V6.18c0-.032.004-.059.004-.086v-.172q.004-.136.008-.266v-.168q-.001-.04.004-.082a.8.8 0 0 1 .054-.351m0 0" style="stroke:none;fill-rule:nonzero;fill:#c3deeb;fill-opacity:1"/><path d="M29.305 1.332h.023c.024.246.027.492.024.742v.231c-.004.066-.004.066.023.113l-.008.102q-.023.156-.015.32v2.234q0 .496.003.992v.891c0 .238-.003.473-.027.711h-.023zm0 0" style="stroke:none;fill-rule:nonzero;fill:#e5f9fe;fill-opacity:1"/><path d="M15.707 25.695h.023c.02.149.024.297.024.446v.789c-.004.047-.004.047-.024.093l.043.024h-.043v.058c.024.649.024.649.024.97v.066c0 .113-.008.222-.024.336.196.02.387.027.582.027h.579c.16 0 .316 0 .476-.004h1.645l.023.047h-3.328zm0 0" style="stroke:none;fill-rule:nonzero;fill:#3b77a6;fill-opacity:1"/><path d="M12.746 5.082h3.422v.023q-.02.002-.04.004-.093.007-.187.02c-.02 0-.043.004-.062.004q-.031.004-.063.008-.03.002-.058.004c-.051.007-.051.007-.102.023-.043.008-.043.008-.09-.016l.024-.023h-.07q-.024.034-.047.074l-.051-.012c-.063-.015-.063-.015-.133-.015v-.047l-.16.047v-.047c-.07 0-.117 0-.188.023v-.047l-.054.012a1.4 1.4 0 0 1-.282.012h-.472c-.02 0-.035 0-.055-.004q-.157 0-.316.023c-.047.004-.047.004-.125-.007a1 1 0 0 0-.274.007.7.7 0 0 1-.226-.02l-.024.024c-.105.004-.215 0-.32 0l-.023.461h-.024zm0 0" style="stroke:none;fill-rule:nonzero;fill:#3c78a5;fill-opacity:1"/><path d="M19.824 9.992h1.18v1.235h-1.18zm.024.024c-.004.14-.004.285-.004.425v.418c0 .118.008.227.023.344h.258v-.027h.16v.027h.649c.02-.07.023-.11.027-.18v-.352c-.004-.077 0-.151 0-.23v-.336c0-.043 0-.043-.027-.066-.227-.039-.461-.027-.688-.023h-.398m0 0" style="stroke:none;fill-rule:nonzero;fill:#dbf4fb;fill-opacity:1"/><path d="M21.281 21.41q.11.141.196.293.029.052.062.106c.008.02.02.035.031.054.055.094.114.188.168.282l.07.117q.017.03.04.058.047.087.101.172.205.34.414.68.135.224.27.45.018.03.035.054.032.053.062.105.031.052.063.106a.2.2 0 0 1 .031.05q.016.024.031.047c.02.04.02.04.02.09h-.047c-.027-.039-.027-.039-.055-.094q-.016-.021-.03-.05-.029-.049-.052-.102c-.03-.062-.074-.117-.117-.176-.023-.039-.023-.039-.023-.113h-.047v-.047l-.043-.008a.2.2 0 0 0-.047-.015q-.012-.023-.023-.051l-.047-.07-.024-.051-.047-.047q-.003-.035-.007-.07c-.016-.082-.032-.094-.082-.149-.016-.062-.016-.062-.024-.12h-.07v-.122h-.047q-.016-.035-.031-.07c-.032-.074-.032-.074-.086-.098a2 2 0 0 0-.051-.125c-.02-.05-.02-.05-.055-.113-.03-.051-.03-.051-.03-.102h-.071l-.024-.07-.07-.05c-.016-.063-.016-.063-.02-.122l-.07-.023-.047-.121-.05-.051c-.043-.047-.043-.047-.043-.14q-.024-.013-.047-.028a.56.56 0 0 1-.067-.266m0 0" style="stroke:none;fill-rule:nonzero;fill:#42769a;fill-opacity:1"/><path d="M8.559 3.824h1.78v1.207H9.185v-.023h.254V4.96h.046v.047q.036-.011.079-.028c.082-.02.082-.02.128.004v-.05a.4.4 0 0 0 .063.027c.078.023.098.02.168 0l.07.047.024-.074v.074h.277v-1.16q-.104.022-.207.047c-.063-.008-.063-.008-.117-.024-.055-.004-.114-.004-.168-.004h-.047q-.122-.001-.238.016c-.079.012-.079.012-.118 0-.078-.02-.16-.016-.238-.016h-.055c-.058 0-.113.004-.171.004h-.398zm0 0" style="stroke:none;fill-rule:nonzero;fill:#e8fbfe;fill-opacity:1"/><path d="M12.746 5.637h.024v1.16h.183v.05h.078q.368-.004.742-.003.186.001.38-.004h.702c.028 0 .028 0 .06-.004.073.004.132.004.202.043.051.062.047.121.051.203v.148q.004.077.008.153c.004.262.004.262-.047.36q-.011.099-.016.198c0 .02-.004.036-.004.055 0 .043-.004.09-.004.133h-.023V6.895l-2.336-.024zm0 0" style="stroke:none;fill-rule:nonzero;fill:#3b729f;fill-opacity:1"/><path d="M9.113 18.652h.024v1.235h-.578v1.234H7.402v-1.21h.024v1.187h1.086l-.024-.075.024-.07q.005-.053.004-.105v-.067c0-.023-.004-.047-.004-.07v-.66q.001-.035-.004-.063v-.058c.004-.043.004-.043.027-.067q.064-.005.13-.004h.077q.042-.001.082.004h.289c0-.02 0-.035-.004-.054-.015-.387-.02-.77.004-1.157m0 0" style="stroke:none;fill-rule:nonzero;fill:#3c7199;fill-opacity:1"/><path d="M6.969 3.723h.648q.158-.001.32.004h.622v.023c-.325.04-.649.027-.97.023h-.304c-.172-.003-.336.012-.508.024l.024 1.258c.562.015.562.015 1.133.027a.5.5 0 0 1-.2.063c-.07 0-.07 0-.125.03q-.075.006-.152.005h-.082c-.023 0-.043-.004-.066-.004l.023-.07h-.43c-.035 0-.035 0-.07.003-.055-.004-.055-.004-.078-.027-.004-.059-.012-.117-.012-.18q-.005-.024-.004-.054c-.02-.368-.008-.73.016-1.098.07-.035.137-.027.215-.027m0 0" style="stroke:none;fill-rule:nonzero;fill:#3974a1;fill-opacity:1"/><path d="M9.16 9.992h1.18v1.235H9.254q.03-.034.066-.075l.07.024c.047-.008.047-.008.094-.024.047 0 .047 0 .09.008.117.02.188.012.301-.031a1 1 0 0 1 .234 0c.04.035.04.035.067.074v-.05q.023-.006.047-.008c.015-.004.03-.012.047-.016.039-.082.027-.18.027-.27v-.066c0-.07-.004-.14-.004-.211v-.492c-.352-.098-.77-.063-1.133-.074zm0 0" style="stroke:none;fill-rule:nonzero;fill:#ebfcfd;fill-opacity:1"/><path d="M18.668 5.348h.02v.847c.09.032.16.028.257.024l.024-.024c.074-.011.152-.011.23-.015q.037-.005.067-.004c.285-.016.285-.016.394.043h.117l.024-.461h.023v.531h-1.203q-.005-.15-.004-.309v-.093c-.004-.184.012-.36.051-.54m0 0" style="stroke:none;fill-rule:nonzero;fill:#b8d6e6;fill-opacity:1"/><path d="M19.8 8.371h.024v.992h1.18v-.605h.508v.023h-.485v.571c0 .058 0 .058-.023.082q-.093.005-.18.004h-.344c-.097 0-.19 0-.289-.004q-.01.029-.023.05v-.05h-.367zm0 0" style="stroke:none;fill-rule:nonzero;fill:#608caa;fill-opacity:1"/><path d="M7.402 22.453c.047.102.051.172.051.281v1.379c0 .239-.008.473-.027.711h.207v-.05l.047.023.023-.024a1 1 0 0 1 .207-.023h.168c.043 0 .043 0 .09-.004.105.004.203.012.305.043a.1.1 0 0 0 .039.008l.047-.047v.098H7.402zm0 0" style="stroke:none;fill-rule:nonzero;fill:#e8fbfd;fill-opacity:1"/><path d="M23.363 18.582h1.27l-.024 1.402h-.023v-1.308l-1.246-.024zm0 0" style="stroke:none;fill-rule:nonzero;fill:#417ba6;fill-opacity:1"/><path d="M19.824 18.629h1.203q.02.058.043.121h.07a.2.2 0 0 1 .02.047c.024.055.024.055.074.074v.168h.047l.067.121.047-.023v.12l.093.048v.05h.047v.047a1 1 0 0 1 .047.051v.047h.043c.066.184.066.184.094.273.023.067.05.11.093.16-.011.028-.011.028-.023.051a5 5 0 0 1-.355-.562c-.098-.176-.204-.344-.309-.516-.121-.195-.121-.195-.121-.254h-1.18zm0 0" style="stroke:none;fill-rule:nonzero;fill:#3e7297;fill-opacity:1"/><path d="m21.813 20.031.07.024v.05h.043c.07.137.07.137.07.192h.047l.023.098h.047l.059.117q.013.036.031.066c.024.059.024.059.024.106l.07-.024c.086.102.16.215.207.34q-.007.034-.02.074h.067l.023.059c.02.062.02.062.07.086l-.046.07h.07v.121l.07.024q.037.073.067.148c.03.059.066.117.097.176.008.015.02.031.028.047q.029.06.062.113c-.082-.027-.09-.043-.133-.117l-.035-.063q-.018-.03-.035-.066l-.082-.14c-.016-.024-.027-.048-.043-.071a10 10 0 0 0-.207-.344l-.082-.133q-.016-.03-.04-.066-.108-.181-.218-.363l-.246-.399c-.058-.097-.058-.097-.058-.125m0 0" style="stroke:none;fill-rule:nonzero;fill:#3a729b;fill-opacity:1"/><path d="M21.004 20.953c.066.09.117.16.168.262.015.035.015.035.035.07q.011.024.027.055l-.047.023c-.07-.117-.07-.117-.07-.168h-.07c-.008 1.203-.012 2.41-.02 3.653h-.023zm0 0" style="stroke:none;fill-rule:nonzero;fill:#5f8caa;fill-opacity:1"/><path d="M12.746 8.176h2.336v.027c-.437.024-.875.024-1.312.024-.325-.004-.325-.004-.649.02-.05.003-.05.003-.098-.02l-.253-.024v1.57h-.024zm0 0" style="stroke:none;fill-rule:nonzero;fill:#3c76a2;fill-opacity:1"/><path d="M19.8 3.945c.016.008.028.016.048.024L19.805 4l-.055.047-.059.047-.113.093c-.062.055-.133.094-.203.137-.047.031-.047.031-.062.102-.016.015-.036.031-.051.047a.9.9 0 0 0-.168.195c-.117.172-.117.172-.196.242h-.046c.109-.41.496-.707.832-.906.062-.035.062-.035.117-.059m0 0" style="stroke:none;fill-rule:nonzero;fill:#e1f3f8;fill-opacity:1"/><path d="M7.84 11.152v.051l.223-.012h.066c.113-.007.203-.023.312-.062l.118.023a1 1 0 0 0 .152-.011c.14-.016.14-.016.219.011q.065.005.129.004.034.001.07-.004h.055l.023.075h-.82c-1.012.003-1.012.003-1.125-.075a2.6 2.6 0 0 1 .578 0m0 0" style="stroke:none;fill-rule:nonzero;fill:#ecfafc;fill-opacity:1"/><path d="M20.645 3.793h.265q.135.001.27-.004c.297 0 .578.004.863.082-.07.047-.07.047-.125.043-.02-.004-.043-.012-.066-.016a2.5 2.5 0 0 0-.45-.03h-.066c-.121 0-.121 0-.242.027a1 1 0 0 1-.164-.024l-.09-.012-.07-.011v.047h-.043v-.047a2 2 0 0 0-.29.039c-.019.004-.039.004-.058.008l-.024-.024-.164-.023v-.024c.153-.031.301-.031.454-.031m0 0" style="stroke:none;fill-rule:nonzero;fill:#d1e7f3;fill-opacity:1"/><path d="M22.137 5.684h.047q0 .26.007.523v.176c.016.664.016.664-.226.949a.47.47 0 0 1-.324.148c-.032-.003-.032-.003-.059-.003.063-.094.152-.098.254-.122v-.05l.113-.024v-.047h.047c.016-.039.031-.082.047-.12l.035-.083c.047-.133.047-.261.047-.402v-.082q.002-.129.004-.258-.001-.088.004-.176-.001-.211.004-.43m0 0" style="stroke:none;fill-rule:nonzero;fill:#407099;fill-opacity:1"/><path d="M21.395 3.727h.464v.046h.09v.051q.026.001.051.008c.074.016.148.04.223.063.023.007.05.02.078.027.066.023.066.023.113.047v.047q.031.004.063.007c.078.016.097.028.144.09l.047.024v.047h.047l.023-.047v.097h.047v.07a.3.3 0 0 1-.183-.097 2 2 0 0 0-.442-.262.4.4 0 0 0-.058-.027 1.6 1.6 0 0 0-.297-.066c-.125-.024-.125-.024-.18-.079-.055-.011-.055-.011-.117-.015-.02 0-.043-.004-.063-.004q-.021-.002-.05-.004zm0 0" style="stroke:none;fill-rule:nonzero;fill:#4c7ea2;fill-opacity:1"/><path d="M21.055 7.473h.144c.121 0 .238 0 .36.004l-.024.046h-.039c-.133.004-.27.004-.402.004q-.077.005-.149.004c-.074 0-.144 0-.218.004h-.067a.84.84 0 0 0-.605.246 1.5 1.5 0 0 0-.188.301q-.01-.026-.02-.05a.8.8 0 0 1 .231-.364c.05-.02.05-.02.09-.023v-.047h.07v-.051c.266-.098.54-.078.817-.074m0 0" style="stroke:none;fill-rule:nonzero;fill:#517999;fill-opacity:1"/><path d="M21.004 8.637q.034.006.074.011c.086.016.086.016.18.012v.05c.027-.007.058-.019.086-.026a.7.7 0 0 1 .316 0c.067.004.094-.016.152-.047l.094.023c.055 0 .055 0 .11-.008a.2.2 0 0 1 .054-.007l.043-.008c-.297.207-.773.129-1.11.12v.606h-.023a7 7 0 0 1-.015-.297q-.002-.04-.004-.082-.002-.04-.004-.082-.002-.036-.004-.074a.5.5 0 0 1 .05-.191m0 0" style="stroke:none;fill-rule:nonzero;fill:#e5fafe;fill-opacity:1"/><path d="M9.16 21.145h.602v.023h-.578c0 .09.004.18.004.27q.003.126.007.253c0 .059.004.122.004.18.004.086.004.168.008.254v.082c0 .035 0 .035.004.074v.067c-.004.054-.004.054-.05.129-.056.007-.056.007-.122.007q-.034.001-.074-.004h-.153q-.088-.004-.183-.003v-.051l-.047-.047h.578zm0 0" style="stroke:none;fill-rule:nonzero;fill:#5e8cad;fill-opacity:1"/><path d="M22.184 5.805h.023l.012.53q.004.088.008.18.002.13.003.258c.004.028.004.051.004.082.004.157-.007.25-.097.38l-.051.074c-.078.097-.188.14-.297.191l-.047.023-.117-.023c.047-.023.09-.047.137-.066.191-.086.297-.235.375-.426.035-.11.035-.219.035-.336q-.001-.035.004-.074v-.235q-.001-.082.004-.164-.001-.194.004-.394m0 0" style="stroke:none;fill-rule:nonzero;fill:#c1daec;fill-opacity:1"/><path d="M19.8 8.176h.024l-.023 1.234-.024-.047h-.07v-.992h.023l.024.242q.002-.035.004-.07c.004-.047.004-.047.004-.094.004-.031.004-.058.008-.09a.7.7 0 0 1 .03-.183m0 0" style="stroke:none;fill-rule:nonzero;fill:#3b74a1;fill-opacity:1"/><path d="M18.621 6.29h1.11v.026l-.208.024-.023.07c-.027-.004-.027-.004-.059-.012-.05-.011-.05-.011-.082-.011l-.047.047-.023-.07-.113.046v-.047a.4.4 0 0 0-.035.04c-.082.046-.133.027-.22.007.017-.008.028-.015.048-.023V6.34h-.043c-.106 0-.203-.004-.305-.024zm0 0" style="stroke:none;fill-rule:nonzero;fill:#346d9c;fill-opacity:1"/><path d="M23.293 5.25h.023c.086.355.079.71.075 1.078q-.002.095-.004.184.001.228-.004.457h-.02l-.023-.946L23.293 6v-.047a3 3 0 0 0-.023-.363 1.2 1.2 0 0 1 .023-.34m0 0" style="stroke:none;fill-rule:nonzero;fill:#cfe6f2;fill-opacity:1"/><path d="M21.027 22.96c.04.09.051.114.051.208v.136q-.005.036-.004.071v.387q.001.195-.004.383l.047.023c0 .098 0 .098-.023.148.008.047.008.047.023.098l.012.055.012.039h-.047v.289h-.047c-.008.027-.008.027-.02.05zm0 0" style="stroke:none;fill-rule:nonzero;fill:#3976a3;fill-opacity:1"/><path d="M8.535 23.129h.024v1.574c-.047-.05-.047-.05-.051-.125q.005-.035.004-.07h-.024v-.226c0-.083 0-.157.024-.235h-.024v-.242c0-.078 0-.14.024-.215a1 1 0 0 0 .008-.11q0-.029.003-.062v-.063q.005-.033.004-.066c.004-.055.004-.105.008-.16m0 0" style="stroke:none;fill-rule:nonzero;fill:#ecfbfd;fill-opacity:1"/><path d="M5.55 18.75h.024c.035.387.024.773.024 1.16h.578v.05h-.602a1.2 1.2 0 0 1-.027-.233v-.067c0-.023.004-.047.004-.07v-.84m0 0" style="stroke:none;fill-rule:nonzero;fill:#3e739a;fill-opacity:1"/><path d="M21.488 4.96c.063.005.121.017.184.024l.023.07.07-.023.024.098-.078-.024a1.5 1.5 0 0 0-.375-.035h-.074q-.117-.005-.235-.004-.081-.002-.164-.003c-.129-.004-.261-.004-.394-.008.074-.075.16-.055.258-.055.03 0 .03 0 .066-.004h.2q.098-.005.202-.004.06-.005.125-.004c.09.008.09.008.168-.027m0 0" style="stroke:none;fill-rule:nonzero;fill:#cae0e9;fill-opacity:1"/><path d="m9.922 19.84.047.023c.062.004.125.012.187.012a.3.3 0 0 0 .055.004q.065.004.129.008v.023h-.578v1.235h-.024v-.82h-.047v-.055a1.6 1.6 0 0 0-.023-.36c.09-.062.148-.082.254-.07m0 0" style="stroke:none;fill-rule:nonzero;fill:#bedce9;fill-opacity:1"/><path d="M20.469 5.055c.16 0 .316 0 .476-.004h.39q.041-.002.075-.004c.223 0 .399.062.563.226a.62.62 0 0 1 .164.387c-.051-.05-.059-.078-.078-.144-.028-.079-.028-.079-.09-.133l-.043-.012.023-.074q-.024-.007-.054-.02c-.06-.027-.06-.027-.082-.074a.7.7 0 0 0-.34-.086c-.024-.004-.024-.004-.047-.004-.188-.011-.383-.015-.574-.023h-.11q-.134-.007-.273-.008zm0 0" style="stroke:none;fill-rule:nonzero;fill:#3f6e92;fill-opacity:1"/><path d="M7.75 28.477c.04.007.074.015.113.023q.064.002.13.004h.077c.04-.004.04-.004.082-.004h.446c.652-.004.652-.004.957.023v.024q-.468.005-.93.004h-.434c-.136 0-.277.004-.414.004h-.562c-.043-.008-.043-.008-.09-.055h.297c.043 0 .043 0 .086.004h.16c.055.004.055.004.082-.027m0 0" style="stroke:none;fill-rule:nonzero;fill:#3c77a5;fill-opacity:1"/><path d="M9.16 9.992h1.18v.871h-.024a6 6 0 0 1-.023-.773c-.352-.098-.77-.063-1.133-.074zm0 0" style="stroke:none;fill-rule:nonzero;fill:#d4edf5;fill-opacity:1"/><path d="M5.621 18.676h1.063v.027h-.09q-.167.004-.332.008-.072-.001-.145.004-.103-.001-.207.004h-.066q-.03-.001-.059.004H5.73c-.043 0-.043 0-.062.027q-.005.053-.004.105v.629c.004.133.004.27.004.403h-.047zm0 0" style="stroke:none;fill-rule:nonzero;fill:#eafdfe;fill-opacity:1"/><path d="M10.363 3.824c.13.137.094.36.094.547q.001.137-.004.274l-.043.023a3 3 0 0 0-.015.184c0 .02-.004.035-.004.054 0 .04-.004.082-.004.125h-.024zm0 0" style="stroke:none;fill-rule:nonzero;fill:#3773a1;fill-opacity:1"/><path d="M9.184 5.055h1.156c-.07.074-.149.062-.242.066-.028.004-.028.004-.055.004-.137.008-.137.008-.191-.02a.2.2 0 0 1-.02.047c-.016 0-.035-.004-.05-.004q-.03-.003-.063-.007-.03-.001-.063-.008c-.058-.004-.058-.004-.125-.004l-.168-.012q-.041-.004-.09-.008-.033-.002-.066-.004-.012.047-.023.098zm0 0" style="stroke:none;fill-rule:nonzero;fill:#356b93;fill-opacity:1"/><path d="M9.16 18.676h.16c-.015.02-.015.02-.03.035-.056.098-.052.191-.052.3a3 3 0 0 1-.031.391c-.008.09-.012.176-.016.266v.07q-.007.087-.007.172H9.16zm0 0" style="stroke:none;fill-rule:nonzero;fill:#def7fe;fill-opacity:1"/><path d="M8.559 19.96h.023v1.208q-.07.026-.14.05l-.024-.023q-.1-.005-.2-.004H7.54a.6.6 0 0 0-.138.028l-.023-.074h1.18zm0 0" style="stroke:none;fill-rule:nonzero;fill:#c6e3f2;fill-opacity:1"/><path d="M8.559 19.91h.601v.024c-.242.015-.242.015-.484.027-.047.113-.047.113-.051.223v.187q-.001.106.004.207v.274q.005.033.004.066v.109c-.004.047-.004.047-.051.118zm0 0" style="stroke:none;fill-rule:nonzero;fill:#e4fafe;fill-opacity:1"/><path d="m23.063 7.887.042.023a1 1 0 0 1-.043.098h-.046l.015.066c.008.078.008.078-.023.121-.04.032-.04.032-.11.055l-.035.059c-.07.074-.12.09-.215.117-.054.015-.054.015-.12.066.035-.09.081-.129.156-.187.148-.121.265-.258.378-.418m0 0" style="stroke:none;fill-rule:nonzero;fill:#3c729a;fill-opacity:1"/><path d="m20.98 9.945.067.024v1.258h-.043zm0 0" style="stroke:none;fill-rule:nonzero;fill:#487da0;fill-opacity:1"/><path d="M7.379 24.871h1.226l-.023.047c-.07.012-.07.012-.152.016q-.04.003-.086.007-.03-.001-.063.004l-.023.07H8.21v-.097h-.05q-.118.005-.235.004h-.082a4 4 0 0 1-.465-.027zm0 0" style="stroke:none;fill-rule:nonzero;fill:#2c628b;fill-opacity:1"/><path d="m15.082 6.871.066.047c.012.07.012.07.016.16v.05a1 1 0 0 1 .004.099c0 .05.004.101.004.156.008.262.008.262-.043.36q-.011.099-.016.198c0 .02-.004.036-.004.055 0 .043-.004.09-.004.133h-.023zm0 0" style="stroke:none;fill-rule:nonzero;fill:#4d82a4;fill-opacity:1"/><path d="M6.8 21.605c.079.11.079.11.079.211v.067q.001.035-.004.07c.004.024.004.043.004.067a1.1 1.1 0 0 1-.055.335h.555v.024H6.8zm0 0" style="stroke:none;fill-rule:nonzero;fill:#e2f7fe;fill-opacity:1"/><path d="M21.027 21.531h.02c.023.184.023.352 0 .535l.047.024h-.047v.047h.047a.7.7 0 0 1 0 .316h-.047q.004.019.008.043l.015.117a.4.4 0 0 1-.023.153l.047.023h-.047v.05q.023.013.047.024h-.047v.047l.047.024h-.067zm0 0" style="stroke:none;fill-rule:nonzero;fill:#3673a0;fill-opacity:1"/><path d="M23.105 7.695h.047a.8.8 0 0 1-.148.293q-.013.022-.031.043a2 2 0 0 1-.352.364h-.047c.04-.094.094-.149.164-.22.14-.136.14-.136.23-.312q.06-.064.118-.12.007-.024.02-.048m0 0" style="stroke:none;fill-rule:nonzero;fill:#d5f1f9;fill-opacity:1"/><path d="M15.105 7.281h.024q.01.194.02.387l.046-.023v.218c0 .07 0 .07.016.125.008.043.008.043-.016.117l-.113.07zm0 0" style="stroke:none;fill-rule:nonzero;fill:#3676a0;fill-opacity:1"/><path d="M20.469 7.574a.5.5 0 0 1-.188.133.95.95 0 0 0-.285.258c-.016.023-.016.023-.035.043h-.047c.05-.188.2-.317.352-.414.078-.04.12-.047.203-.02m0 0" style="stroke:none;fill-rule:nonzero;fill:#daf2f9;fill-opacity:1"/><path d="M29.281 15.582v.387h-.043c-.008-.031-.008-.031-.011-.063l-.012-.082-.012-.078c-.008-.066-.008-.066-.035-.117q-.02.005-.04.004c-.183.027-.366.02-.554.012q-.045-.005-.097-.004l-.235-.012v-.024l.41-.011q.07.001.141-.004c.066 0 .133-.004.203-.004h.063q.03-.005.058-.004h.164m0 0" style="stroke:none;fill-rule:nonzero;fill:#35709b;fill-opacity:1"/><path d="M6.707 18.676h.07v1.164h-.023a6 6 0 0 1-.024-.52c.004-.215-.011-.43-.023-.644m0 0" style="stroke:none;fill-rule:nonzero;fill:#e3fafe;fill-opacity:1"/><path d="M23.34 5.348h.043c.066.066.058.136.062.226q.002.03.004.059.01.31-.004.62-.005.06-.004.118l-.011.281h-.024v-.078q-.002-.141-.004-.289c-.004-.039-.004-.082-.004-.12a3.5 3.5 0 0 0-.05-.638c-.008-.062-.012-.117-.008-.18m0 0" style="stroke:none;fill-rule:nonzero;fill:#386f9b;fill-opacity:1"/><path d="m22.645 8.395.07.023-.098.074-.055.04c-.058.034-.105.042-.171.058l-.059.058c-.062.067-.086.082-.172.086-.066-.023-.066-.023-.117-.05.066-.047.129-.075.203-.106q.116-.047.227-.105c.054-.028.054-.028.101-.028q.036-.029.07-.05m0 0" style="stroke:none;fill-rule:nonzero;fill:#4a83ad;fill-opacity:1"/><path d="M19.914 18.676h1.09l.023.074h-.047v-.047l-.925.024v.023h-.188v.316h-.02c-.003-.062-.003-.12-.003-.183v-.051q-.001-.064.004-.129c.02-.027.02-.027.066-.027m0 0" style="stroke:none;fill-rule:nonzero;fill:#ecfcfd;fill-opacity:1"/><path d="M21.695 22.113a.8.8 0 0 1 .149.2c.015.027.031.05.047.078.015.027.03.05.047.078q.022.041.046.078c.075.129.153.258.223.387-.023.015-.023.015-.047.027v-.05h-.07v-.122h-.047l-.031-.07c-.032-.074-.032-.074-.086-.098a2 2 0 0 0-.051-.125c-.02-.05-.02-.05-.055-.113-.03-.051-.03-.051-.03-.102h-.071q-.024-.069-.047-.144zm0 0" style="stroke:none;fill-rule:nonzero;fill:#4c7d9b;fill-opacity:1"/><path d="M19.848 8.129h.02v1.16q.148.023.3.05v.024h-.344q-.005-.24-.004-.48V8.28a.7.7 0 0 1 .028-.152m0 0" style="stroke:none;fill-rule:nonzero;fill:#e0f7fc;fill-opacity:1"/><path d="M22.297 23.082h.047v.047h.093q.001.023.008.047c.012.054.012.054.059.097q-.007.023-.02.051c.02-.008.043-.02.067-.027l.047.148h.047l.023.239c-.082-.098-.145-.204-.211-.313l-.031-.055a3 3 0 0 1-.13-.234m0 0" style="stroke:none;fill-rule:nonzero;fill:#d9f1f7;fill-opacity:1"/><path d="M6.8 22.379h.579v.652h-.024l-.023-.605h-.508zm0 0" style="stroke:none;fill-rule:nonzero;fill:#507795;fill-opacity:1"/><path d="M19.73 21.047c.047.05.047.05.051.105v.301c0 .192 0 .192-.027.274h-.047v-.325q.001-.046-.004-.093v-.172c.004-.063.004-.063.027-.09m0 0" style="stroke:none;fill-rule:nonzero;fill:#3077ae;fill-opacity:1"/><path d="M21.21 19.066c.08.075.138.16.192.254.008.016.02.028.028.043.023.04.023.04.058.114l-.023.07c-.07-.024-.07-.024-.098-.07l-.058-.122c-.028-.058-.028-.058-.098-.074-.027-.136-.027-.136 0-.215m0 0" style="stroke:none;fill-rule:nonzero;fill:#d6f0f7;fill-opacity:1"/><path d="M18.668 5.25a.45.45 0 0 1 0 .227 4 4 0 0 0-.04.503q-.002.048-.003.094c0 .07-.004.145-.004.215h-.023c-.04-.344-.063-.715.07-1.039m0 0" style="stroke:none;fill-rule:nonzero;fill:#366a96;fill-opacity:1"/><path d="M19.8 8.055c.024.008.044.02.067.027-.015.137-.015.137-.066.191-.012.075-.012.075-.012.16v.094c-.004.036-.004.067-.004.102q.001.048-.004.101-.002.123-.004.247h-.023c-.024-.278-.027-.547-.024-.825h.047zm0 0" style="stroke:none;fill-rule:nonzero;fill:#447fae;fill-opacity:1"/><path d="M15.105 4.96h.043v.048h.465v.023h-1.527v-.023c.113-.024.223-.028.34-.028.02.004.035.004.054.004h.602zm0 0" style="stroke:none;fill-rule:nonzero;fill:#e8fcfe;fill-opacity:1"/><path d="M21.004 8.637c.043.023.043.023.066.074l.602.023v.024h-.668v.605h-.024a7 7 0 0 1-.015-.297q-.002-.04-.004-.082-.002-.04-.004-.082-.002-.036-.004-.074a.5.5 0 0 1 .05-.191m0 0" style="stroke:none;fill-rule:nonzero;fill:#d4f0fa;fill-opacity:1"/><path d="M7.262 11.273h.718c-.082.086-.21.07-.324.075l-.14-.024-.082.012c-.079.012-.106.008-.172-.04zm0 0" style="stroke:none;fill-rule:nonzero;fill:#3a78a6;fill-opacity:1"/><path d="m19.29 4.355.046.047c-.023.008-.043.016-.07.024zm-.138.145.047.023q-.051.07-.097.141-.016.017-.032.04a1.2 1.2 0 0 1-.172.206h-.046a.57.57 0 0 1 .16-.289h.07l.023-.047c.024-.05.024-.05.047-.074m0 0" style="stroke:none;fill-rule:nonzero;fill:#e8f7f8;fill-opacity:1"/><path d="M14.41 25.887h.07v.797h-.046v-.067a9 9 0 0 0-.024-.73m0 0" style="stroke:none;fill-rule:nonzero;fill:#326b96;fill-opacity:1"/><path d="M15.773 15.578q.025-.001.055.004h.137a.4.4 0 0 0 .07.004q.113.002.227.004.075.005.152.004l.379.011v.024h-.996q-.024.045-.047.098c-.016.03-.027.062-.043.097q-.005-.057-.004-.11v-.058c.004-.066.008-.074.07-.078m0 0" style="stroke:none;fill-rule:nonzero;fill:#3872a0;fill-opacity:1"/><path d="M11.566 11.273h.903c-.063.063-.09.059-.172.059-.035.004-.035.004-.074.004-.028 0-.051.004-.078.004-.04 0-.04 0-.079.004-.191.008-.191.008-.27-.02-.038-.008-.081-.011-.12-.015-.02 0-.04-.004-.063-.004l-.047-.008zm0 0" style="stroke:none;fill-rule:nonzero;fill:#3c7ba7;fill-opacity:1"/><path d="M14.527 27.46h.024q.006.405.02.821h.023q.005.052.004.106.005.029.004.062-.001.022-.008.051-.03.023-.067.047zm0 0" style="stroke:none;fill-rule:nonzero;fill:#edf9fc;fill-opacity:1"/><path d="M22.09 6.992h.047c-.028.18-.13.29-.254.41a.44.44 0 0 1-.301.075c.063-.094.152-.098.254-.122v-.05l.113-.024v-.047h.047c.008-.02.016-.035.02-.054.039-.094.039-.094.074-.188m0 0" style="stroke:none;fill-rule:nonzero;fill:#3c6c95;fill-opacity:1"/><path d="M18.969 4.598h.043a.8.8 0 0 1-.098.207c-.066.105-.11.215-.152.332q-.035.083-.075.16c-.023-.133-.023-.133 0-.215h.047c.004-.016.012-.031.016-.043.09-.293.09-.293.172-.371.015-.023.027-.047.047-.07m0 0" style="stroke:none;fill-rule:nonzero;fill:#4b7b9d;fill-opacity:1"/><path d="M22.875 24.074c.11.106.18.227.258.36a1 1 0 0 1 .043.07q.024.035.043.07.022.031.039.063c.035.07.058.136.082.21h-.047l-.023-.05a6 6 0 0 0-.352-.582c-.043-.07-.043-.07-.043-.14m0 0" style="stroke:none;fill-rule:nonzero;fill:#457494;fill-opacity:1"/><path d="M16.746 1.379h.902l-.046.023-.024.051c-.05-.016-.09-.027-.137-.05v.05l-.074-.012a.55.55 0 0 0-.297.012v-.05h-.277v.05q-.035-.011-.07-.027zm0 0" style="stroke:none;fill-rule:nonzero;fill:#3776a9;fill-opacity:1"/><path d="M23.293 6.46h.07v.579c0 .066-.011.129-.023.195h-.024l.024-.289h-.047q.002-.022.004-.047.007-.03.008-.058l.008-.059a.4.4 0 0 0-.02-.152v-.074l-.023-.07zm0 0" style="stroke:none;fill-rule:nonzero;fill:#e5f6fa;fill-opacity:1"/><path d="M6.246 21.195h.508v.215h-.047l-.023-.144c-.094-.02-.094-.02-.192-.012-.09.016-.16-.012-.246-.035zm0 0" style="stroke:none;fill-rule:nonzero;fill:#4683b2;fill-opacity:1"/><path d="M23.316 21.023h.047v.653h-.07q.002-.03.004-.063.021-.291.02-.59m0 0" style="stroke:none;fill-rule:nonzero;fill:#3d75a0;fill-opacity:1"/><path d="M6.848 19.621c.047.074.047.074.047.195h.53c-.077.051-.1.051-.187.051h-.215q-.087-.005-.175-.004zm0 0" style="stroke:none;fill-rule:nonzero;fill:#4687b7;fill-opacity:1"/><path d="m23.293 7.305.023.074h.047V7.5l-.093.023q-.004.035-.008.063a.8.8 0 0 1-.086.23c-.016.051-.016.051-.024.094v-.047h-.047a.8.8 0 0 1 .082-.238c.051-.105.083-.203.106-.32m0 0" style="stroke:none;fill-rule:nonzero;fill:#5185a9;fill-opacity:1"/><path d="M23.246 1.379h.649l-.047.023-.024.051c-.05-.016-.094-.027-.14-.05q-.007.021-.02.05-.058-.026-.117-.05v.05q-.036-.011-.07-.027c-.008.008-.016.02-.024.027h-.047v-.05l-.09.05q-.01-.011-.023-.027h-.07zm0 0" style="stroke:none;fill-rule:nonzero;fill:#3777aa;fill-opacity:1"/><path d="M22.184 22.934q.162.157.253.363v.098l-.07.023-.023-.121h-.047q-.007-.042-.02-.09a.28.28 0 0 0-.093-.176zm0 0" style="stroke:none;fill-rule:nonzero;fill:#38729b;fill-opacity:1"/><path d="M19.574 6.195c.078.02.145.028.227.024v.047q-.234.005-.469-.008c-.027-.004-.059-.004-.09-.008q-.03-.001-.066-.008l-.024-.047a.7.7 0 0 1 .422 0m0 0" style="stroke:none;fill-rule:nonzero;fill:#e6f7fb;fill-opacity:1"/><path d="M2.984 1.379h.602l-.047.023q-.012.023-.023.051l-.118.024v-.075h-.066q-.012.023-.023.051v-.05q-.028.01-.055.023c-.063.027-.063.027-.133.027v-.05h-.043l-.023.05q-.048-.011-.094-.027zm0 0" style="stroke:none;fill-rule:nonzero;fill:#3777aa;fill-opacity:1"/><path d="M9.207 21.34h.047q-.005.036-.004.074v.152c0 .075.004.137.023.207q-.005.012-.02.024-.005.122 0 .238c0 .11-.007.211-.023.32h-.023zm0 0" style="stroke:none;fill-rule:nonzero;fill:#3878a8;fill-opacity:1"/><path d="M22.367 3.992a.7.7 0 0 1 .301.145v.047h.047l.023-.047v.097h.047v.07c-.086-.011-.133-.046-.195-.105a1.5 1.5 0 0 0-.18-.129q-.019-.016-.043-.03zm0 0" style="stroke:none;fill-rule:nonzero;fill:#396f97;fill-opacity:1"/><path d="M14.434 25.234h.046v.63h-.046a.9.9 0 0 1-.02-.247q-.001-.03.004-.066-.001-.036.004-.07-.001-.036.004-.07.001-.09.008-.177m0 0" style="stroke:none;fill-rule:nonzero;fill:#346c98;fill-opacity:1"/><path d="M23.086 22.113h.043v.07h.047c.031.06.062.114.094.172q.046-.021.093-.05v.293a2 2 0 0 1-.191-.285c-.008-.012-.02-.028-.027-.043-.06-.102-.06-.102-.06-.157m0 0" style="stroke:none;fill-rule:nonzero;fill:#37688a;fill-opacity:1"/><path d="M21.926 7.016q.023.033.047.074l-.024.047h.047l.024-.098a.3.3 0 0 1 .046.027c-.043.114-.043.114-.07.168h-.047v.047a.34.34 0 0 1-.183.098l.047-.121h.046l.024-.047h.043zm0 0" style="stroke:none;fill-rule:nonzero;fill:#3474a9;fill-opacity:1"/><path d="m8.441 21 .07.047v.05h-.995l.023-.05c.297-.004.586.012.879.027zm0 0" style="stroke:none;fill-rule:nonzero;fill:#417eaf;fill-opacity:1"/><path d="M19.406 4.184c0 .101-.035.12-.097.191l-.055.066c-.059.059-.113.122-.172.18l-.07-.023c.125-.149.25-.29.394-.414m0 0" style="stroke:none;fill-rule:nonzero;fill:#d1ecf6;fill-opacity:1"/><path d="M20.582 5.059c.031 0 .031 0 .059.003q.098.002.191.004c.043 0 .086.004.129.004l.32.012v.023l-.394.012c-.043.004-.09.004-.133.004-.063.004-.129.004-.192.008H20.5c-.047.004-.098 0-.145 0l-.046-.047c.09-.035.18-.027.273-.023m0 0" style="stroke:none;fill-rule:nonzero;fill:#487da7;fill-opacity:1"/><path d="M20.32 5.11q.018.009.035.019l-.117.047v.074a.4.4 0 0 1-.183.047v.05h-.047l-.047.098q-.012-.029-.023-.05c.23-.301.23-.301.382-.286m0 0" style="stroke:none;fill-rule:nonzero;fill:#376d98;fill-opacity:1"/><path d="m22.828 21.629.094.047v.097h.047v.051l.047.024.047.144q.018.061.042.121-.018.012-.043.024l-.058-.106-.035-.058c-.024-.055-.024-.055-.024-.102q-.03-.048-.058-.098c-.059-.09-.059-.09-.059-.144m0 0" style="stroke:none;fill-rule:nonzero;fill:#4787b3;fill-opacity:1"/><path d="M6.8 22.426h.532v.05h-.324l-.024.07v-.07h-.183zm0 0" style="stroke:none;fill-rule:nonzero;fill:#4883b3;fill-opacity:1"/><path d="M16.145 1.379h.578l-.024.074h-.047v-.05h-.043v.05h-.047v-.05h-.046l-.024.05-.094.024-.023-.051a.5.5 0 0 0-.184.027v-.05zm0 0" style="stroke:none;fill-rule:nonzero;fill:#3878aa;fill-opacity:1"/><path d="M29.238 28.477v.07h-.742c.078-.055.11-.05.203-.05h.074a1 1 0 0 1 .082.003h.16c.036 0 .036 0 .07.004.06-.004.095-.027.153-.027m0 0" style="stroke:none;fill-rule:nonzero;fill:#3673a3;fill-opacity:1"/><path d="M22.113 5.492h.07v.098h.044v.652h-.02q-.005-.04-.004-.086a3 3 0 0 0-.09-.664m0 0" style="stroke:none;fill-rule:nonzero;fill:#e7f8fc;fill-opacity:1"/><path d="M19.152 4.305c.024.008.047.02.07.027h-.046l.023.07c-.031.051-.031.051-.074.102l-.043.055c-.047.039-.047.039-.137.039V4.5h.067q.023-.045.047-.098h.07q.012-.045.023-.097m0 0" style="stroke:none;fill-rule:nonzero;fill:#37719b;fill-opacity:1"/><path d="M22.55 4.16c.106.059.18.137.262.223q.023.02.04.043l.093.097a.26.26 0 0 1-.16-.046v-.051h-.047l-.023-.094h-.07v-.05h-.047v-.048h-.047zm0 0" style="stroke:none;fill-rule:nonzero;fill:#e3f9fd;fill-opacity:1"/><path d="m21.004 18.629.066.074v.047h.07a.2.2 0 0 1 .02.047c.024.055.024.055.074.074v.195c-.23-.28-.23-.28-.23-.437m0 0" style="stroke:none;fill-rule:nonzero;fill:#4a7fa3;fill-opacity:1"/><path d="M20.008 18.484h.277l-.047.098h-.39v-.027l.16-.024zm0 0" style="stroke:none;fill-rule:nonzero;fill:#2e77ae;fill-opacity:1"/><path d="m22.598 21.34.07.023v.047l.07.024q.037.073.067.148c.03.059.066.117.097.176.008.015.02.031.028.047q.029.06.062.113c-.086-.027-.094-.055-.14-.133q-.022-.035-.043-.07l-.04-.07c-.019-.04-.019-.04-.042-.075zm0 0" style="stroke:none;fill-rule:nonzero;fill:#4a7a98;fill-opacity:1"/><path d="M23.152 22.066c.047.07.047.07.07.118.06.02.06.02.118.027v.144l-.07.024c-.094-.14-.094-.14-.094-.195h-.047zm0 0" style="stroke:none;fill-rule:nonzero;fill:#3070a3;fill-opacity:1"/><path d="M7.031 1.379h.672l-.023.047-.14-.024v.051q-.043-.026-.09-.05v.05h-.071v-.05c-.04.007-.04.007-.078.011a.6.6 0 0 1-.27-.012zm0 0" style="stroke:none;fill-rule:nonzero;fill:#3979a9;fill-opacity:1"/><path d="M19.73 24.074h.047c0 .168-.004.336-.023.508h-.047v-.168q-.002-.046-.004-.094c.004-.078.004-.078.027-.101zm0 0" style="stroke:none;fill-rule:nonzero;fill:#3076ab;fill-opacity:1"/><path d="M25.05 1.379h.555c-.097.05-.113.05-.207.023v.051h-.14v-.05c-.016.003-.028.011-.043.015-.05.008-.05.008-.094-.016v.051h-.047zm0 0" style="stroke:none;fill-rule:nonzero;fill:#3878a8;fill-opacity:1"/><path d="M21.395 3.727h.464l.024.097h-.102q-.03.002-.058.004c-.051-.004-.051-.004-.098-.055-.055-.011-.055-.011-.117-.015-.02 0-.043-.004-.063-.004q-.021-.002-.05-.004zm0 0" style="stroke:none;fill-rule:nonzero;fill:#3a74a1;fill-opacity:1"/><path d="M21.117 21.242c.059.047.07.07.086.145.008.074.008.074-.015.12q-.024-.056-.047-.12l-.024.144h-.047l-.023-.12.047-.048-.024-.074h.047zm0 0" style="stroke:none;fill-rule:nonzero;fill:#3d87be;fill-opacity:1"/><path d="m21.813 20.031.07.024v.05h.043c.07.137.07.137.07.192h.047l.023.098h.047v.12a3 3 0 0 1-.203-.296c-.008-.016-.02-.032-.027-.047-.07-.113-.07-.113-.07-.14m0 0" style="stroke:none;fill-rule:nonzero;fill:#527e9e;fill-opacity:1"/><path d="M23.086 22.16c.074.098.152.203.207.317l-.023.046a.46.46 0 0 1-.184-.242c-.008-.07-.008-.07 0-.12m0 0" style="stroke:none;fill-rule:nonzero;fill:#d2eef7;fill-opacity:1"/><path d="M6.152 20.445h.024v.7h-.024l-.023-.243h-.024v-.12l.024-.024q.012-.078.012-.16.004-.04.007-.086.002-.037.004-.067m0 0" style="stroke:none;fill-rule:nonzero;fill:#3a75a2;fill-opacity:1"/><path d="M20.348 5.027a.4.4 0 0 0 .07.004h.05a2 2 0 0 1-.253.125c-.047.02-.047.02-.09.02v-.094c.074-.05.133-.055.223-.055m0 0" style="stroke:none;fill-rule:nonzero;fill:#d8eff8;fill-opacity:1"/><path d="M29.238 15.992h.043v.485c-.043-.051-.043-.051-.047-.11v-.066a.7.7 0 0 0-.011-.207c-.008-.055-.008-.055.015-.102m0 0" style="stroke:none;fill-rule:nonzero;fill:#376e9b;fill-opacity:1"/><path d="M18.133 1.379h.512l-.07.023v.051h-.048v-.05c-.047.023-.047.023-.093.05-.024-.016-.043-.035-.067-.05v.05h-.047v-.05q-.058.021-.117.05v-.05zm0 0" style="stroke:none;fill-rule:nonzero;fill:#3676a7;fill-opacity:1"/><path d="m21.996 7.258.024.047c-.036.093-.063.12-.153.164l-.078.031-.047.023-.117-.023.14-.07a.6.6 0 0 0 .231-.172m0 0" style="stroke:none;fill-rule:nonzero;fill:#cde7f4;fill-opacity:1"/><path d="M25.676 1.379h.554v.023l-.12.012c-.024.004-.047.004-.07.008-.102.008-.196 0-.298-.02v.051H25.7zm0 0" style="stroke:none;fill-rule:nonzero;fill:#3778a9;fill-opacity:1"/><path d="M1.48 1.379h.508v.023h-.183v.051a1 1 0 0 0-.078-.016c-.082-.015-.082-.015-.153.016l-.023.047v-.098zm0 0" style="stroke:none;fill-rule:nonzero;fill:#3779a9;fill-opacity:1"/><path d="M19.547 4.066v.047a3 3 0 0 1-.137.11c-.015.015-.015.015-.035.027-.066.05-.129.094-.2.129v-.047h.048v-.05h.043v-.048c.05-.043.05-.043.113-.09q.033-.018.066-.042c.055-.036.055-.036.102-.036m0 0" style="stroke:none;fill-rule:nonzero;fill:#3b6a8c;fill-opacity:1"/><path d="M20.309 3.848c-.059.07-.059.07-.114.078-.027 0-.027 0-.05-.004-.086-.012-.086-.012-.137.023h-.14c.14-.097.277-.105.44-.097m0 0" style="stroke:none;fill-rule:nonzero;fill:#dff3f9;fill-opacity:1"/><path d="M29.238 20.129h.043v.363h-.066zm0 0" style="stroke:none;fill-rule:nonzero;fill:#366f9e;fill-opacity:1"/><path d="M18.734 4.766h.118l-.024.054-.047.14c-.07-.026-.07-.026-.113-.05q.03-.07.066-.144m0 0" style="stroke:none;fill-rule:nonzero;fill:#3d85b8;fill-opacity:1"/><path d="M14.27 1.379h.464l-.023.047-.14-.024v.051c-.055-.027-.055-.027-.114-.05v.05h-.047v-.05h-.047q-.012.021-.023.05c-.024-.027-.043-.05-.07-.074m0 0" style="stroke:none;fill-rule:nonzero;fill:#3878a9;fill-opacity:1"/><path d="M8.605 24.895c-.043.046-.117.035-.175.039q-.04.002-.086.003-.03.004-.063.008l-.023.07H8.21v-.097h-.117v-.023l.23-.012q.03-.005.067-.004.029-.005.062-.004.03-.005.059-.004c.047 0 .047 0 .093.024m0 0" style="stroke:none;fill-rule:nonzero;fill:#3370a4;fill-opacity:1"/><path d="M22.715 21.316h.047v.07h.043c.027.071.027.071.047.145-.024.035-.024.035-.047.074-.086-.136-.086-.136-.114-.218zm0 0" style="stroke:none;fill-rule:nonzero;fill:#4185b8;fill-opacity:1"/><path d="M21.027 21.023c.098.09.149.2.207.317l-.047.023c-.07-.117-.07-.117-.07-.168h-.07q-.01-.085-.02-.172m0 0" style="stroke:none;fill-rule:nonzero;fill:#517b99;fill-opacity:1"/><path d="M20.031 7.695h.047a.6.6 0 0 1-.09.207l-.035.055a1 1 0 0 1-.105.125.83.83 0 0 1 .183-.387m0 0" style="stroke:none;fill-rule:nonzero;fill:#427398;fill-opacity:1"/><path d="m21.742 22.16.164.024v.242a1 1 0 0 1-.164-.266m0 0" style="stroke:none;fill-rule:nonzero;fill:#e0f5f9;fill-opacity:1"/><path d="M21.766 8.637c.062.008.062.008.14.023q.101-.006.207-.023c-.133.093-.285.105-.441.097.039-.05.039-.05.094-.097m0 0" style="stroke:none;fill-rule:nonzero;fill:#d6f1f8;fill-opacity:1"/><path d="M9.922 1.379h.254c-.047.05-.047.05-.114.098-.078-.008-.078-.008-.14-.024zm0 0" style="stroke:none;fill-rule:nonzero;fill:#3a79ab;fill-opacity:1"/><path d="M19.313.121h.464l-.023.047h-.067c-.074-.004-.074-.004-.14.027-.047-.008-.094-.02-.14-.027-.024.012-.024.012-.048.027v-.05zm0 0" style="stroke:none;fill-rule:nonzero;fill:#f2fafb;fill-opacity:1"/><path d="M19.73 20.684h.047v.293a1 1 0 0 1-.07-.051c-.008-.043-.008-.043-.004-.094v-.055c.004-.043.004-.043.027-.093m0 0" style="stroke:none;fill-rule:nonzero;fill:#2f76ad;fill-opacity:1"/><path d="M19.707 9.047c.023.012.023.012.047.027.008.063.008.063.016.145q0 .04.003.082-.001.029.004.062h-.07zm0 0" style="stroke:none;fill-rule:nonzero;fill:#2e70a6;fill-opacity:1"/><path d="m23.016 8.082.023.07a.26.26 0 0 1-.14.098l-.047.047-.047-.047q.041-.04.078-.086l.047-.047c.039-.035.039-.035.086-.035m0 0" style="stroke:none;fill-rule:nonzero;fill:#3172a5;fill-opacity:1"/><path d="M18.688 5.54h.023a1 1 0 0 1 0 .386c-.016.008-.027.02-.043.027q-.005-.092-.004-.18v-.05c0-.13 0-.13.023-.184m0 0" style="stroke:none;fill-rule:nonzero;fill:#e6f6fb;fill-opacity:1"/><path d="M21.605 21.848c.137.136.137.136.141.234 0 .02-.004.035-.004.055a.7.7 0 0 1-.16-.219zm0 0" style="stroke:none;fill-rule:nonzero;fill:#d7f1f9;fill-opacity:1"/><path d="M21.695 19.742c.07.024.07.024.106.09l.035.078c.023.043.043.082.07.121l-.047.024a.36.36 0 0 1-.117-.192q-.01-.035-.027-.07-.007-.023-.02-.05m0 0" style="stroke:none;fill-rule:nonzero;fill:#437fab;fill-opacity:1"/><path d="M20.148 7.547q.043.026.09.05h-.07v.048q-.089.033-.184.074l-.047-.051a.5.5 0 0 1 .145-.059l.043-.011c.008-.016.012-.032.023-.051m0 0" style="stroke:none;fill-rule:nonzero;fill:#3374a7;fill-opacity:1"/><path d="M22.113 7.137c.02.039.02.039.024.097a1 1 0 0 1-.117.145c-.024-.074-.024-.074.007-.149.04-.07.04-.07.086-.093m0 0" style="stroke:none;fill-rule:nonzero;fill:#dff3f8;fill-opacity:1"/><path d="M22.09 6.992h.047a.57.57 0 0 1-.188.34h-.043v-.05h.043v-.048h.047c.008-.02.016-.035.02-.054q.04-.094.074-.188m0 0" style="stroke:none;fill-rule:nonzero;fill:#39648b;fill-opacity:1"/><path d="M14.41 28.402h.024v.145h-.278V28.5q.044.004.086.008c.051 0 .051 0 .098-.008.047-.047.047-.047.07-.098m0 0" style="stroke:none;fill-rule:nonzero;fill:#3472a5;fill-opacity:1"/><path d="M23.2 7.598h.046c-.016.074-.043.144-.07.218l-.024.094v-.047h-.047a.9.9 0 0 1 .094-.265m0 0" style="stroke:none;fill-rule:nonzero;fill:#42779d;fill-opacity:1"/><path d="M23.063 4.742c.101.086.125.188.16.313-.07-.024-.07-.024-.098-.075l-.023-.066-.024-.066c-.015-.059-.015-.059-.015-.106m0 0" style="stroke:none;fill-rule:nonzero;fill:#d7eff7;fill-opacity:1"/><path d="M16.309 3.895h.043q.01.059.015.117.001.033.008.066c0 .059 0 .059-.023.133h-.043zm0 0" style="stroke:none;fill-rule:nonzero;fill:#3176a9;fill-opacity:1"/><path d="M21.371 21.555c.047.027.047.027.094.05v.07h.047a.4.4 0 0 1 .07.075c.004.066.004.066 0 .121a.9.9 0 0 1-.21-.316m0 0" style="stroke:none;fill-rule:nonzero;fill:#caeaf5;fill-opacity:1"/><path d="m9.207 9.773.023.098.278.047v.027h-.301zm0 0" style="stroke:none;fill-rule:nonzero;fill:#4382b1;fill-opacity:1"/><path d="M19.848 5.418h.066l-.012.043a1.7 1.7 0 0 0-.078.297h-.023a.8.8 0 0 1 .047-.34m0 0" style="stroke:none;fill-rule:nonzero;fill:#e0f4fb;fill-opacity:1"/><path d="M21.234 19.04h.047l.067.12.047-.023v.168a.8.8 0 0 1-.16-.215zm0 0" style="stroke:none;fill-rule:nonzero;fill:#3b7195;fill-opacity:1"/><path d="m22.645 8.395.07.023q-.051.04-.102.074c-.027.024-.027.024-.054.043q-.028.013-.055.031a.3.3 0 0 0-.067-.027l.024-.07c.066-.024.066-.024.113-.024q.036-.029.07-.05m0 0" style="stroke:none;fill-rule:nonzero;fill:#4782ad;fill-opacity:1"/><path d="M19.707 23.566h.07v.192l-.07.023zm0 0" style="stroke:none;fill-rule:nonzero;fill:#3278ad;fill-opacity:1"/><path d="m21.047 22.477.094.046c-.016.079-.04.149-.07.22-.028-.09-.024-.173-.024-.266m0 0" style="stroke:none;fill-rule:nonzero;fill:#3476ab;fill-opacity:1"/><path d="m21.21 19.066.048.024c.012.05.012.05.023.11l.012.058.012.047-.094-.024c-.027-.136-.027-.136 0-.215m0 0" style="stroke:none;fill-rule:nonzero;fill:#e7f8f8;fill-opacity:1"/><path d="M22.504 8.516a.67.67 0 0 1-.32.144v-.047l.12-.062.071-.035c.063-.024.063-.024.129 0m0 0" style="stroke:none;fill-rule:nonzero;fill:#4a7696;fill-opacity:1"/><path d="M21.695 3.824c.117.012.235.024.348.047-.082.059-.102.05-.2.031q-.034-.007-.07-.015-.024-.008-.054-.016zm0 0" style="stroke:none;fill-rule:nonzero;fill:#dcf1f7;fill-opacity:1"/><path d="M15.844 3.727h.418l.023.07q-.023-.007-.047-.008A2 2 0 0 0 16 3.762q-.045-.004-.09-.008c-.031 0-.031 0-.066-.004zm0 0" style="stroke:none;fill-rule:nonzero;fill:#3772a3;fill-opacity:1"/><path d="M22.066 22.719c.055.07.102.133.141.215-.023.015-.023.015-.047.027v-.05h-.07v-.122h-.047zm0 0" style="stroke:none;fill-rule:nonzero;fill:#5084a2;fill-opacity:1"/><path d="M22.55 4.16c.095.05.15.106.212.195l-.117-.023v-.05h-.047v-.048h-.047zm0 0" style="stroke:none;fill-rule:nonzero;fill:#d6f0f9;fill-opacity:1"/><path d="M22.043 3.895c.11.039.219.074.324.12-.043.028-.043.028-.094.051a.3.3 0 0 0-.046-.027v-.047l-.184-.047zm0 0" style="stroke:none;fill-rule:nonzero;fill:#e0f4fa;fill-opacity:1"/><path d="M10.387 1.379h.3l-.093.023-.024.051v-.05h-.07q-.012.021-.023.05-.055-.011-.114-.027zm0 0" style="stroke:none;fill-rule:nonzero;fill:#3977aa;fill-opacity:1"/><path d="M21.281 21.41a.7.7 0 0 1 .137.242l-.07.024c-.067-.156-.067-.156-.067-.266m0 0" style="stroke:none;fill-rule:nonzero;fill:#4a7d9e;fill-opacity:1"/><path d="M20.031 5.176c.051.008.051.008.094.027-.07.059-.07.059-.14.121l-.047-.05c.042-.051.042-.051.093-.098m0 0" style="stroke:none;fill-rule:nonzero;fill:#cce7f2;fill-opacity:1"/><path d="M23.383 5.129h.023q.011.052.016.105.004.03.008.059c0 .055 0 .055-.047.125-.051-.152-.051-.152-.024-.238zm0 0" style="stroke:none;fill-rule:nonzero;fill:#3376ab;fill-opacity:1"/><path d="M13.602 1.379h.253l-.046.023v.051c-.059-.027-.059-.027-.118-.05v.05h-.113zm0 0" style="stroke:none;fill-rule:nonzero;fill:#3777ab;fill-opacity:1"/><path d="M9.39 1.379h.278l-.047.023-.023.051a.6.6 0 0 1-.16-.027zm0 0" style="stroke:none;fill-rule:nonzero;fill:#3977a9;fill-opacity:1"/><path d="M2.059 1.379h.37q-.046.034-.093.074-.012-.011-.023-.027-.078.002-.16.004c-.048-.004-.048-.004-.094-.051m0 0" style="stroke:none;fill-rule:nonzero;fill:#397aaa;fill-opacity:1"/><path d="M18.734 5.152h.024a.7.7 0 0 1-.047.317h-.023a.8.8 0 0 1 .046-.317m0 0" style="stroke:none;fill-rule:nonzero;fill:#e5f7fb;fill-opacity:1"/><path d="M21.441 5.105c.114-.003.196-.007.301.047-.055.04-.082.051-.148.04a1 1 0 0 0-.11-.044q-.02-.008-.043-.02zm0 0" style="stroke:none;fill-rule:nonzero;fill:#3876a7;fill-opacity:1"/><path d="M15.941 5.102c.043.003.043.003.09.003l-.07.024v.047h-.211c.043-.082.11-.074.191-.074m0 0" style="stroke:none;fill-rule:nonzero;fill:#3177aa;fill-opacity:1"/><path d="M27.594 1.379a.3.3 0 0 1 .097-.004c.028 0 .059.004.09.004-.027.035-.027.035-.07.074-.086.004-.086.004-.164 0q.023-.04.047-.074m0 0" style="stroke:none;fill-rule:nonzero;fill:#3a79ac;fill-opacity:1"/><path d="M23.016 21.895c.035.07.062.144.09.218l-.044.024-.093-.192h.047zm0 0" style="stroke:none;fill-rule:nonzero;fill:#487ea1;fill-opacity:1"/><path d="M22.762 21.629c.066.062.097.133.136.219h-.046v-.051c-.02-.008-.02-.008-.043-.02-.047-.027-.047-.027-.07-.074q.01-.04.023-.074m0 0" style="stroke:none;fill-rule:nonzero;fill:#e0f5f9;fill-opacity:1"/><path d="M19.914 5.418a.3.3 0 0 1 .047.027l-.07.239q-.022-.036-.043-.07a1 1 0 0 1 .066-.196m0 0" style="stroke:none;fill-rule:nonzero;fill:#4b7aa0;fill-opacity:1"/><path d="M11.844 1.379h.254l-.024.047a.6.6 0 0 1-.183.027v-.05zm0 0" style="stroke:none;fill-rule:nonzero;fill:#3778a8;fill-opacity:1"/><path d="M22.715 23.855c.101.125.101.125.113.22h-.066a2 2 0 0 1-.07-.173zm0 0" style="stroke:none;fill-rule:nonzero;fill:#4485b5;fill-opacity:1"/><path d="M9.113 21.41h.024v.242l-.07-.023c.019-.164.019-.164.046-.219m0 0" style="stroke:none;fill-rule:nonzero;fill:#e7fdfe;fill-opacity:1"/><path d="m18.688 5.082.07.023-.047.192c-.016-.016-.027-.031-.043-.047.008-.086.008-.086.02-.168m0 0" style="stroke:none;fill-rule:nonzero;fill:#5382a4;fill-opacity:1"/><path d="M20.54 5.082c-.048.047-.048.047-.114.055-.07-.008-.07-.008-.117-.055.086-.031.144-.016.23 0m0 0" style="stroke:none;fill-rule:nonzero;fill:#47779d;fill-opacity:1"/><path d="M19.523 4.16a.36.36 0 0 1-.14.172.3.3 0 0 1-.047-.027c.11-.145.11-.145.187-.145m0 0" style="stroke:none;fill-rule:nonzero;fill:#e9fafb;fill-opacity:1"/><path d="m19.43 4.066.07.024q-.083.058-.164.12-.023-.021-.047-.05l.023-.047h.118zm0 0" style="stroke:none;fill-rule:nonzero;fill:#3977a5;fill-opacity:1"/><path d="M24.402 1.379h.278l-.07.023-.024.051v-.05c-.05.015-.106.03-.16.05zm0 0" style="stroke:none;fill-rule:nonzero;fill:#3979aa;fill-opacity:1"/><path d="M6.246 21.195q.048-.005.098-.004c.02 0 .035-.003.054-.003a.34.34 0 0 1 .149.054c-.113.035-.192.008-.3-.023zm0 0" style="stroke:none;fill-rule:nonzero;fill:#4283b6;fill-opacity:1"/><path d="m23.316 7.234.024.047h.043l.023-.047v.121l-.09.024zm0 0" style="stroke:none;fill-rule:nonzero;fill:#3d77a3;fill-opacity:1"/><path d="M11.195 1.379h.184l-.024.074h-.043v-.05a1 1 0 0 0-.07.05h-.07zm0 0" style="stroke:none;fill-rule:nonzero;fill:#3678aa;fill-opacity:1"/><path d="M22.875 24.074a.5.5 0 0 1 .14.192h-.07c-.047-.07-.07-.106-.07-.192m0 0" style="stroke:none;fill-rule:nonzero;fill:#4f7d9a;fill-opacity:1"/><path d="M22.184 22.934c.109.113.109.113.136.195l-.047.023a.2.2 0 0 0-.02-.047c-.023-.05-.023-.05-.07-.074zm0 0" style="stroke:none;fill-rule:nonzero;fill:#477997;fill-opacity:1"/><path d="M21.926 22.621a.3.3 0 0 1 .094.047c.02.066.02.066.023.121-.023.012-.023.012-.047.027q-.023-.029-.047-.05h.047l-.023-.098h-.047zm0 0" style="stroke:none;fill-rule:nonzero;fill:#4387b8;fill-opacity:1"/><path d="M22.25 20.781c.063.059.09.114.117.196-.047-.024-.09-.047-.14-.075zm0 0" style="stroke:none;fill-rule:nonzero;fill:#cdeaf4;fill-opacity:1"/><path d="m22.09 8.684-.024.074-.07.023-.07-.07c.058-.031.101-.027.164-.027m0 0" style="stroke:none;fill-rule:nonzero;fill:#3d7298;fill-opacity:1"/><path d="M21.91 7.434c.02.007.02.007.04.02-.052.034-.052.034-.114.07l-.07-.024c.078-.074.078-.074.144-.066m0 0" style="stroke:none;fill-rule:nonzero;fill:#ebf7fa;fill-opacity:1"/><path d="M2.66 1.379h.184l-.047.023v.051h-.113zm0 0" style="stroke:none;fill-rule:nonzero;fill:#3678aa;fill-opacity:1"/><path d="M22.598 21.363c.07.067.109.121.14.219-.058-.027-.058-.027-.117-.074-.02-.078-.02-.078-.023-.145m0 0" style="stroke:none;fill-rule:nonzero;fill:#d7eef5;fill-opacity:1"/><path d="m8.441 21 .07.047v.05h-.206v-.023h.113zm0 0" style="stroke:none;fill-rule:nonzero;fill:#3a76a7;fill-opacity:1"/><path d="M20.469 7.574c-.043.047-.043.047-.13.051q-.038-.005-.077-.004c.07-.074.117-.078.207-.047m0 0" style="stroke:none;fill-rule:nonzero;fill:#c6e5f1;fill-opacity:1"/><path d="M22.137 6.797h.047c0 .14 0 .14-.024.195h-.047zm0 0" style="stroke:none;fill-rule:nonzero;fill:#487397;fill-opacity:1"/><path d="m20.426 5.129-.024.047h-.07l-.023.05a1 1 0 0 1-.094-.05.33.33 0 0 1 .21-.047m0 0" style="stroke:none;fill-rule:nonzero;fill:#3978ac;fill-opacity:1"/><path d="M18.969 4.598h.043a.3.3 0 0 1-.137.191l-.023-.047.03-.031c.044-.043.044-.043.087-.113m0 0" style="stroke:none;fill-rule:nonzero;fill:#477596;fill-opacity:1"/><path d="M10.2 1.379h.163l-.047.023v.051h-.14zm0 0" style="stroke:none;fill-rule:nonzero;fill:#3978ab;fill-opacity:1"/></svg>